<?xml version="1.0" encoding="UTF-8"?>
<svg xmlns="http://www.w3.org/2000/svg" viewBox="0 0 1015 256" version="1.1" style="fill-rule:evenodd;clip-rule:evenodd;stroke-linecap:round;stroke-linejoin:round;">
    <g><g transform="matrix(0.333333,0,0,0.333333,37.583333,37.083333)">
        <path d="M128,71.5C159.183,71.5 184.5,96.817 184.5,128C184.5,159.183 159.183,184.5 128,184.5C96.817,184.5 71.5,159.183 71.5,128C71.5,96.817 96.817,71.5 128,71.5ZM128,104.5C115.03,104.5 104.5,115.03 104.5,128C104.5,140.97 115.03,151.5 128,151.5C140.97,151.5 151.5,140.97 151.5,128C151.5,115.03 140.97,104.5 128,104.5Z" style="fill:#3AA99F;"/>
    </g>
    <g transform="matrix(0.333333,0,0,0.333333,37.583333,37.083333)">
        <path d="M174.866,194.259C182.45,189.218 192.7,191.282 197.741,198.866C202.782,206.45 200.718,216.7 193.134,221.741C175.432,233.507 150.846,240.5 128,240.5C66.284,240.5 15.5,189.716 15.5,128C15.5,66.284 66.284,15.5 128,15.5C189.716,15.5 240.5,66.284 240.5,128C240.5,160.538 225.46,184.5 196,184.5C166.54,184.5 151.5,160.538 151.5,128L151.5,88C151.5,78.893 158.893,71.5 168,71.5C177.107,71.5 184.5,78.893 184.5,88L184.5,128C184.5,134.408 185.237,140.363 187.279,145.164C188.851,148.858 191.536,151.5 196,151.5C200.464,151.5 203.149,148.858 204.721,145.164C206.763,140.363 207.5,134.408 207.5,128C207.5,84.388 171.612,48.5 128,48.5C84.388,48.5 48.5,84.388 48.5,128C48.5,171.612 84.388,207.5 128,207.5C144.415,207.5 162.148,202.713 174.866,194.259Z" style="fill:#3AA99F;"/>
    </g>
    <g transform="matrix(1,0,0,1,0,-0.25)">
        <circle cx="176" cy="80" r="32" style="fill:none;stroke:#FFFCF0;stroke-width:12px;"/>
    </g>
    <circle cx="80" cy="176" r="32" style="fill:none;stroke:#FFFCF0;stroke-width:12px;"/>
    <path d="M176,144L176,208" style="fill:none;fill-rule:nonzero;stroke:#8B7EC8;stroke-width:11px;"/>
    <path d="M208,176L144,176" style="fill:none;fill-rule:nonzero;stroke:#8B7EC8;stroke-width:11px;"/></g>
    <path d="M288.508 161.61399999999998H324.18C336.43 161.61399999999998 344.956 154.95 344.956 143.48399999999998V142.50399999999996C344.956 132.70399999999998 338.39 128.88199999999998 334.078 127.70599999999997V125.94199999999998C338.29200000000003 124.66799999999998 344.564 120.84599999999998 344.564 111.33999999999997V110.35999999999997C344.564 99.67799999999997 336.332 93.01399999999997 323.788 93.01399999999997H288.508V104.38199999999998H297.524V150.24599999999998H288.508ZM310.46 121.23799999999997V104.77399999999997H322.416C327.904 104.77399999999997 331.628 107.61599999999997 331.628 112.51599999999998V113.49599999999998C331.628 118.39599999999997 327.806 121.23799999999997 322.416 121.23799999999997ZM310.46 149.85399999999998V132.998H322.612C328.296 132.998 332.02 135.83999999999997 332.02 140.93599999999998V141.91599999999997C332.02 147.01199999999997 328.198 149.85399999999998 322.612 149.85399999999998Z M371.024 162.986C381.216 162.986 384.254 157.49799999999996 385.136 155.04799999999997H386.998V155.146C386.998 159.06599999999997 390.526 161.61399999999998 395.328 161.61399999999998H403.56V151.42199999999997H399.64C397.876 151.42199999999997 396.896 150.44199999999998 396.896 148.48199999999997V130.35199999999998C396.896 118.19999999999997 388.86 111.63399999999997 376.12 111.63399999999997C363.478 111.63399999999997 357.108 118.00399999999998 354.75600000000003 125.35399999999998L366.124 129.176C367.00600000000003 124.76599999999998 369.75 121.62999999999997 375.924 121.62999999999997C382.196 121.62999999999997 384.94 124.96199999999997 384.94 129.46999999999997V132.21399999999997H371.612C360.636 132.21399999999997 352.796 137.408 352.796 147.40399999999997C352.796 157.39999999999998 360.636 162.986 371.024 162.986ZM373.18 152.98999999999998C367.88800000000003 152.98999999999998 365.144 150.53999999999996 365.144 147.01199999999997C365.144 143.48399999999998 367.88800000000003 141.426 372.494 141.426H384.94V142.40599999999998C384.94 148.87399999999997 380.04 152.98999999999998 373.18 152.98999999999998Z M412.576 161.61399999999998H424.92400000000004V133.97799999999998C424.92400000000004 127.11799999999997 429.432 123.78599999999997 435.704 123.78599999999997H441.78000000000003V112.80999999999997H435.90000000000003C431.392 112.80999999999997 427.86400000000003 114.57399999999998 426.492 118.49399999999997H424.728V113.00599999999997H412.576Z M466.476 162.986C476.668 162.986 479.706 157.49799999999996 480.588 155.04799999999997H482.45V155.146C482.45 159.06599999999997 485.978 161.61399999999998 490.78 161.61399999999998H499.012V151.42199999999997H495.092C493.328 151.42199999999997 492.348 150.44199999999998 492.348 148.48199999999997V130.35199999999998C492.348 118.19999999999997 484.312 111.63399999999997 471.572 111.63399999999997C458.93 111.63399999999997 452.56 118.00399999999998 450.208 125.35399999999998L461.576 129.176C462.458 124.76599999999998 465.202 121.62999999999997 471.376 121.62999999999997C477.648 121.62999999999997 480.392 124.96199999999997 480.392 129.46999999999997V132.21399999999997H467.064C456.088 132.21399999999997 448.248 137.408 448.248 147.40399999999997C448.248 157.39999999999998 456.088 162.986 466.476 162.986ZM468.632 152.98999999999998C463.34000000000003 152.98999999999998 460.596 150.53999999999996 460.596 147.01199999999997C460.596 143.48399999999998 463.34000000000003 141.426 467.946 141.426H480.392V142.40599999999998C480.392 148.87399999999997 475.492 152.98999999999998 468.632 152.98999999999998Z M506.264 161.61399999999998H547.2280000000001V151.42199999999997H519.788V149.85399999999998L546.444 127.70599999999997V113.00599999999997H507.244V123.19799999999998H532.92V124.76599999999998L506.264 146.914Z M581.9200000000001 162.986C596.424 162.986 607.4 153.77399999999997 607.4 138.09399999999997V136.52599999999998C607.4 120.84599999999998 596.424 111.63399999999997 581.9200000000001 111.63399999999997C567.416 111.63399999999997 556.44 120.84599999999998 556.44 136.52599999999998V138.09399999999997C556.44 153.77399999999997 567.416 162.986 581.9200000000001 162.986ZM581.9200000000001 152.00999999999996C574.374 152.00999999999996 568.788 146.914 568.788 137.79999999999998V136.81999999999996C568.788 127.70599999999997 574.2760000000001 122.60999999999997 581.9200000000001 122.60999999999997C589.5640000000001 122.60999999999997 595.052 127.70599999999997 595.052 136.81999999999996V137.79999999999998C595.052 146.914 589.466 152.00999999999996 581.9200000000001 152.00999999999996Z M643.2679999999999 161.61399999999998H656.204V133.09599999999998H684.036V121.33599999999998H656.204V104.77399999999997H686.3879999999999V93.01399999999997H643.2679999999999Z M719.1200000000001 162.986C733.624 162.986 744.6 153.77399999999997 744.6 138.09399999999997V136.52599999999998C744.6 120.84599999999998 733.624 111.63399999999997 719.1200000000001 111.63399999999997C704.6160000000001 111.63399999999997 693.6400000000001 120.84599999999998 693.6400000000001 136.52599999999998V138.09399999999997C693.6400000000001 153.77399999999997 704.6160000000001 162.986 719.1200000000001 162.986ZM719.1200000000001 152.00999999999996C711.5740000000001 152.00999999999996 705.988 146.914 705.988 137.79999999999998V136.81999999999996C705.988 127.70599999999997 711.4760000000001 122.60999999999997 719.1200000000001 122.60999999999997C726.7640000000001 122.60999999999997 732.2520000000001 127.70599999999997 732.2520000000001 136.81999999999996V137.79999999999998C732.2520000000001 146.914 726.666 152.00999999999996 719.1200000000001 152.00999999999996Z M755.968 161.61399999999998H768.3159999999999V133.97799999999998C768.3159999999999 127.11799999999997 772.824 123.78599999999997 779.096 123.78599999999997H785.1719999999999V112.80999999999997H779.2919999999999C774.784 112.80999999999997 771.256 114.57399999999998 769.8839999999999 118.49399999999997H768.1199999999999V113.00599999999997H755.968Z M813.2979999999999 162.39799999999997C822.02 162.39799999999997 825.9399999999999 158.57599999999996 827.5079999999999 155.24399999999997H829.2719999999999V161.61399999999998H841.424V113.00599999999997H829.0759999999999V137.70199999999997C829.0759999999999 146.71799999999996 824.6659999999999 152.00999999999996 817.1199999999999 152.00999999999996C810.4559999999999 152.00999999999996 806.732 148.384 806.732 141.03399999999996V113.00599999999997H794.3839999999999V142.01399999999998C794.3839999999999 154.06799999999998 801.93 162.39799999999997 813.2979999999999 162.39799999999997Z M855.144 161.61399999999998H867.492V132.89999999999998C867.492 126.23599999999998 870.628 122.51199999999997 876.312 122.51199999999997C881.212 122.51199999999997 884.152 125.25599999999997 884.152 130.54799999999997V161.61399999999998H896.5V132.89999999999998C896.5 126.23599999999998 899.636 122.51199999999997 905.3199999999999 122.51199999999997C910.22 122.51199999999997 913.16 125.25599999999997 913.16 130.54799999999997V161.61399999999998H925.508V129.66599999999997C925.508 117.90599999999998 918.256 112.22199999999998 909.24 112.22199999999998C901.792 112.22199999999998 898.068 115.35799999999998 895.912 119.47399999999998H894.148C891.894 115.16199999999998 887.974 112.22199999999998 881.016 112.22199999999998C874.548 112.22199999999998 870.726 115.06399999999996 869.06 118.29799999999997H867.296V113.00599999999997H855.144Z M959.024 162.986C971.372 162.986 979.408 157.20399999999998 979.408 147.01199999999997C979.408 136.81999999999996 970.784 133.68399999999997 959.808 131.724L957.064 131.23399999999998C952.556 130.45 949.812 129.176 949.812 126.03999999999998C949.812 123.19799999999998 952.36 121.43399999999997 957.064 121.43399999999997C961.768 121.43399999999997 965.1 123.29599999999996 966.178 128.29399999999998L977.644 124.76599999999998C975.39 116.92599999999997 967.942 111.63399999999997 957.064 111.63399999999997C945.5 111.63399999999997 937.856 117.02399999999997 937.856 126.62799999999997C937.856 136.23199999999997 946.284 140.05399999999997 956.476 141.91599999999997L959.22 142.40599999999998C965.002 143.48399999999998 967.452 144.85599999999997 967.452 147.89399999999998C967.452 150.932 964.708 153.18599999999998 959.024 153.18599999999998C953.34 153.18599999999998 948.734 151.02999999999997 947.46 144.17L936.092 147.10999999999999C937.758 157.30199999999996 946.284 162.986 959.024 162.986Z" fill="#3AA99F"/>
</svg>
