<?xml version="1.0" encoding="UTF-8"?>
<svg xmlns="http://www.w3.org/2000/svg" viewBox="0 0 800 256" version="1.1" style="fill-rule:evenodd;clip-rule:evenodd;stroke-linecap:round;stroke-linejoin:round;">
    <rect width="800" height="256" style="fill:#1C1B1A;"/>
    <g><g transform="matrix(0.333333,0,0,0.333333,37.583333,37.083333)">
        <path d="M128,71.5C159.183,71.5 184.5,96.817 184.5,128C184.5,159.183 159.183,184.5 128,184.5C96.817,184.5 71.5,159.183 71.5,128C71.5,96.817 96.817,71.5 128,71.5ZM128,104.5C115.03,104.5 104.5,115.03 104.5,128C104.5,140.97 115.03,151.5 128,151.5C140.97,151.5 151.5,140.97 151.5,128C151.5,115.03 140.97,104.5 128,104.5Z" style="fill:#3AA99F;"/>
    </g>
    <g transform="matrix(0.333333,0,0,0.333333,37.583333,37.083333)">
        <path d="M174.866,194.259C182.45,189.218 192.7,191.282 197.741,198.866C202.782,206.45 200.718,216.7 193.134,221.741C175.432,233.507 150.846,240.5 128,240.5C66.284,240.5 15.5,189.716 15.5,128C15.5,66.284 66.284,15.5 128,15.5C189.716,15.5 240.5,66.284 240.5,128C240.5,160.538 225.46,184.5 196,184.5C166.54,184.5 151.5,160.538 151.5,128L151.5,88C151.5,78.893 158.893,71.5 168,71.5C177.107,71.5 184.5,78.893 184.5,88L184.5,128C184.5,134.408 185.237,140.363 187.279,145.164C188.851,148.858 191.536,151.5 196,151.5C200.464,151.5 203.149,148.858 204.721,145.164C206.763,140.363 207.5,134.408 207.5,128C207.5,84.388 171.612,48.5 128,48.5C84.388,48.5 48.5,84.388 48.5,128C48.5,171.612 84.388,207.5 128,207.5C144.415,207.5 162.148,202.713 174.866,194.259Z" style="fill:#3AA99F;"/>
    </g>
    <g transform="matrix(1,0,0,1,0,-0.25)">
        <circle cx="176" cy="80" r="32" style="fill:none;stroke:#FFFCF0;stroke-width:12px;"/>
    </g>
    <circle cx="80" cy="176" r="32" style="fill:none;stroke:#FFFCF0;stroke-width:12px;"/>
    <path d="M176,144L176,208" style="fill:none;fill-rule:nonzero;stroke:#8B7EC8;stroke-width:11px;"/>
    <path d="M208,176L144,176" style="fill:none;fill-rule:nonzero;stroke:#8B7EC8;stroke-width:11px;"/></g>
    <path d="M289.52 169.16H333.2C348.2 169.16 358.64 161.0 358.64 146.96V145.76C358.64 133.76 350.6 129.07999999999998 345.32 127.64V125.47999999999999C350.48 123.92 358.15999999999997 119.24 358.15999999999997 107.6V106.4C358.15999999999997 93.32 348.08 85.16 332.72 85.16H289.52V99.08H300.56V155.24H289.52ZM316.4 119.72V99.56H331.04C337.76 99.56 342.32 103.03999999999999 342.32 109.03999999999999V110.24000000000001C342.32 116.24000000000001 337.64 119.72 331.04 119.72ZM316.4 154.76V134.12H331.28C338.24 134.12 342.8 137.6 342.8 143.84V145.04C342.8 151.28 338.12 154.76 331.28 154.76Z M390.56 170.84C403.04 170.84 406.76 164.12 407.84000000000003 161.12H410.12V161.24C410.12 166.04 414.44 169.16 420.32 169.16H430.4V156.68H425.6C423.44 156.68 422.24 155.48 422.24 153.07999999999998V130.88C422.24 116.0 412.4 107.96000000000001 396.8 107.96000000000001C381.32 107.96000000000001 373.52 115.75999999999999 370.64 124.75999999999999L384.56 129.44C385.64 124.03999999999999 389.0 120.19999999999999 396.56 120.19999999999999C404.24 120.19999999999999 407.6 124.28 407.6 129.8V133.16H391.28000000000003C377.84000000000003 133.16 368.24 139.51999999999998 368.24 151.76C368.24 164.0 377.84000000000003 170.84 390.56 170.84ZM393.2 158.6C386.72 158.6 383.36 155.6 383.36 151.28C383.36 146.96 386.72 144.44 392.36 144.44H407.6V145.64C407.6 153.56 401.6 158.6 393.2 158.6Z M441.43999999999994 169.16H456.55999999999995V135.32C456.55999999999995 126.92 462.08 122.84 469.76 122.84H477.19999999999993V109.4H469.99999999999994C464.47999999999996 109.4 460.15999999999997 111.56 458.47999999999996 116.36H456.31999999999994V109.64H441.43999999999994Z M507.44 170.84C519.92 170.84 523.64 164.12 524.72 161.12H527.0V161.24C527.0 166.04 531.32 169.16 537.2 169.16H547.28V156.68H542.48C540.32 156.68 539.12 155.48 539.12 153.07999999999998V130.88C539.12 116.0 529.28 107.96000000000001 513.68 107.96000000000001C498.2 107.96000000000001 490.4 115.75999999999999 487.52 124.75999999999999L501.44 129.44C502.52 124.03999999999999 505.88 120.19999999999999 513.44 120.19999999999999C521.12 120.19999999999999 524.48 124.28 524.48 129.8V133.16H508.16C494.72 133.16 485.12 139.51999999999998 485.12 151.76C485.12 164.0 494.72 170.84 507.44 170.84ZM510.08 158.6C503.6 158.6 500.24 155.6 500.24 151.28C500.24 146.96 503.6 144.44 509.24 144.44H524.48V145.64C524.48 153.56 518.48 158.6 510.08 158.6Z M556.1600000000001 169.16H606.32V156.68H572.72V154.76L605.3600000000001 127.64V109.64H557.3600000000001V122.12H588.8000000000001V124.03999999999999L556.1600000000001 151.16Z M648.8 170.84C666.56 170.84 679.9999999999999 159.56 679.9999999999999 140.36V138.44C679.9999999999999 119.24 666.56 107.96000000000001 648.8 107.96000000000001C631.04 107.96000000000001 617.5999999999999 119.24 617.5999999999999 138.44V140.36C617.5999999999999 159.56 631.04 170.84 648.8 170.84ZM648.8 157.4C639.56 157.4 632.7199999999999 151.16 632.7199999999999 140.0V138.8C632.7199999999999 127.64 639.4399999999999 121.4 648.8 121.4C658.16 121.4 664.8799999999999 127.64 664.8799999999999 138.8V140.0C664.8799999999999 151.16 658.04 157.4 648.8 157.4Z" fill="#3AA99F"/>
</svg>
