<?xml version="1.0" encoding="UTF-8"?>
<svg xmlns="http://www.w3.org/2000/svg" viewBox="0 0 617 256" version="1.1" style="fill-rule:evenodd;clip-rule:evenodd;stroke-linecap:round;stroke-linejoin:round;">
    <rect width="617" height="256" style="fill:#1C1B1A;"/>
    <g><g transform="matrix(0.333333,0,0,0.333333,37.583333,37.083333)">
        <path d="M128,71.5C159.183,71.5 184.5,96.817 184.5,128C184.5,159.183 159.183,184.5 128,184.5C96.817,184.5 71.5,159.183 71.5,128C71.5,96.817 96.817,71.5 128,71.5ZM128,104.5C115.03,104.5 104.5,115.03 104.5,128C104.5,140.97 115.03,151.5 128,151.5C140.97,151.5 151.5,140.97 151.5,128C151.5,115.03 140.97,104.5 128,104.5Z" style="fill:#4385BE;"/>
    </g>
    <g transform="matrix(0.333333,0,0,0.333333,37.583333,37.083333)">
        <path d="M174.866,194.259C182.45,189.218 192.7,191.282 197.741,198.866C202.782,206.45 200.718,216.7 193.134,221.741C175.432,233.507 150.846,240.5 128,240.5C66.284,240.5 15.5,189.716 15.5,128C15.5,66.284 66.284,15.5 128,15.5C189.716,15.5 240.5,66.284 240.5,128C240.5,160.538 225.46,184.5 196,184.5C166.54,184.5 151.5,160.538 151.5,128L151.5,88C151.5,78.893 158.893,71.5 168,71.5C177.107,71.5 184.5,78.893 184.5,88L184.5,128C184.5,134.408 185.237,140.363 187.279,145.164C188.851,148.858 191.536,151.5 196,151.5C200.464,151.5 203.149,148.858 204.721,145.164C206.763,140.363 207.5,134.408 207.5,128C207.5,84.388 171.612,48.5 128,48.5C84.388,48.5 48.5,84.388 48.5,128C48.5,171.612 84.388,207.5 128,207.5C144.415,207.5 162.148,202.713 174.866,194.259Z" style="fill:#4385BE;"/>
    </g>
    <path d="M176,47.75 L208,79.75 L176,111.75 L144,79.75 Z" style="fill:none;stroke:#FFFCF0;stroke-width:12px;"/>
    <path d="M80,144 L112,176 L80,208 L48,176 Z" style="fill:none;stroke:#FFFCF0;stroke-width:12px;"/>
    <path d="M152,192 L176,160 L200,192" style="fill:none;stroke:#8B7EC8;stroke-width:11px;"/></g>
    <path d="M314.282 163.672C330.158 163.672 340.252 155.04799999999997 340.252 142.504C340.252 129.95999999999998 330.55 124.86399999999998 315.948 121.72799999999998L313.694 121.23799999999997C305.462 119.47399999999999 301.64 117.02399999999997 301.64 111.92799999999998C301.64 106.83199999999998 305.266 103.69599999999998 313.106 103.69599999999998C320.946 103.69599999999998 325.748 106.83199999999998 325.748 114.67199999999998V117.61199999999998H338.488V114.67199999999998C338.488 99.77599999999998 327.806 92.32799999999997 313.106 92.32799999999997C298.406 92.32799999999997 288.9 99.77599999999998 288.9 112.31999999999998C288.9 124.86399999999998 297.23 129.666 311.44 132.802L313.694 133.29199999999997C322.514 135.25199999999998 327.512 137.212 327.512 142.896C327.512 148.384 323.102 152.30399999999997 314.282 152.30399999999997C305.462 152.30399999999997 300.072 148.188 300.072 139.956V137.212H287.332V139.956C287.332 154.85199999999998 298.406 163.672 314.282 163.672Z M356.422 108.00799999999998C360.93000000000006 108.00799999999998 364.36 104.87199999999999 364.36 100.16799999999998C364.36 95.46399999999998 360.93000000000006 92.32799999999997 356.422 92.32799999999997C351.91400000000004 92.32799999999997 348.48400000000004 95.46399999999998 348.48400000000004 100.16799999999998C348.48400000000004 104.87199999999999 351.91400000000004 108.00799999999998 356.422 108.00799999999998ZM350.24800000000005 162.29999999999998H362.59600000000006V113.69199999999998H350.24800000000005Z M384.35200000000003 162.29999999999998H396.70000000000005V123.88399999999999H409.44V113.69199999999998H396.70000000000005V106.83199999999998C396.70000000000005 104.87199999999999 397.68 103.89199999999998 399.444 103.89199999999998H407.872V93.69999999999997H395.132C388.66400000000004 93.69999999999997 384.35200000000003 98.01199999999999 384.35200000000003 104.67599999999999V113.69199999999998H372.004V123.88399999999999H384.35200000000003Z M434.13599999999997 163.672C444.328 163.672 447.366 158.18399999999997 448.248 155.73399999999998H450.10999999999996V155.832C450.10999999999996 159.75199999999998 453.638 162.29999999999998 458.43999999999994 162.29999999999998H466.67199999999997V152.10799999999998H462.75199999999995C460.98799999999994 152.10799999999998 460.008 151.128 460.008 149.16799999999998V131.03799999999998C460.008 118.88599999999998 451.972 112.31999999999998 439.23199999999997 112.31999999999998C426.59 112.31999999999998 420.21999999999997 118.68999999999998 417.868 126.03999999999999L429.236 129.86199999999997C430.118 125.45199999999998 432.86199999999997 122.31599999999997 439.03599999999994 122.31599999999997C445.308 122.31599999999997 448.05199999999996 125.64799999999998 448.05199999999996 130.15599999999998V132.89999999999998H434.724C423.748 132.89999999999998 415.90799999999996 138.094 415.90799999999996 148.08999999999997C415.90799999999996 158.08599999999998 423.748 163.672 434.13599999999997 163.672ZM436.292 153.676C431.0 153.676 428.256 151.22599999999997 428.256 147.69799999999998C428.256 144.17 431.0 142.11199999999997 435.606 142.11199999999997H448.05199999999996V143.09199999999998C448.05199999999996 149.55999999999997 443.152 153.676 436.292 153.676Z M500.18800000000005 162.29999999999998H513.124V93.69999999999997H500.18800000000005Z M524.1 162.29999999999998H552.324C570.7479999999999 162.29999999999998 580.548 152.892 580.548 134.468V121.53199999999998C580.548 103.10799999999998 570.7479999999999 93.69999999999997 552.324 93.69999999999997H524.1V105.06799999999998H533.116V150.932H524.1ZM546.052 150.54V105.45999999999998H552.52C562.908 105.45999999999998 567.612 111.14399999999998 567.612 121.13999999999999V134.85999999999999C567.612 144.856 562.908 150.54 552.52 150.54Z" fill="#4385BE"/>
</svg>
