<?xml version="1.0" encoding="UTF-8"?>
<svg xmlns="http://www.w3.org/2000/svg" viewBox="0 0 800 256" version="1.1" style="fill-rule:evenodd;clip-rule:evenodd;stroke-linecap:round;stroke-linejoin:round;">
    <rect width="800" height="256" style="fill:#1C1B1A;"/>
    <g><g transform="matrix(0.333333,0,0,0.333333,37.583333,37.083333)">
        <path d="M128,71.5C159.183,71.5 184.5,96.817 184.5,128C184.5,159.183 159.183,184.5 128,184.5C96.817,184.5 71.5,159.183 71.5,128C71.5,96.817 96.817,71.5 128,71.5ZM128,104.5C115.03,104.5 104.5,115.03 104.5,128C104.5,140.97 115.03,151.5 128,151.5C140.97,151.5 151.5,140.97 151.5,128C151.5,115.03 140.97,104.5 128,104.5Z" style="fill:#4385BE;"/>
    </g>
    <g transform="matrix(0.333333,0,0,0.333333,37.583333,37.083333)">
        <path d="M174.866,194.259C182.45,189.218 192.7,191.282 197.741,198.866C202.782,206.45 200.718,216.7 193.134,221.741C175.432,233.507 150.846,240.5 128,240.5C66.284,240.5 15.5,189.716 15.5,128C15.5,66.284 66.284,15.5 128,15.5C189.716,15.5 240.5,66.284 240.5,128C240.5,160.538 225.46,184.5 196,184.5C166.54,184.5 151.5,160.538 151.5,128L151.5,88C151.5,78.893 158.893,71.5 168,71.5C177.107,71.5 184.5,78.893 184.5,88L184.5,128C184.5,134.408 185.237,140.363 187.279,145.164C188.851,148.858 191.536,151.5 196,151.5C200.464,151.5 203.149,148.858 204.721,145.164C206.763,140.363 207.5,134.408 207.5,128C207.5,84.388 171.612,48.5 128,48.5C84.388,48.5 48.5,84.388 48.5,128C48.5,171.612 84.388,207.5 128,207.5C144.415,207.5 162.148,202.713 174.866,194.259Z" style="fill:#4385BE;"/>
    </g>
    <path d="M176,47.75 L208,79.75 L176,111.75 L144,79.75 Z" style="fill:none;stroke:#FFFCF0;stroke-width:12px;"/>
    <path d="M80,144 L112,176 L80,208 L48,176 Z" style="fill:none;stroke:#FFFCF0;stroke-width:12px;"/>
    <path d="M152,192 L176,160 L200,192" style="fill:none;stroke:#8B7EC8;stroke-width:11px;"/></g>
    <path d="M321.08 171.68C340.52 171.68 352.88 161.12 352.88 145.76C352.88 130.4 341.0 124.16 323.12 120.32L320.36 119.72C310.28 117.56 305.6 114.56 305.6 108.32C305.6 102.08 310.04 98.24000000000001 319.64 98.24000000000001C329.24 98.24000000000001 335.12 102.08 335.12 111.68V115.28H350.72V111.68C350.72 93.44 337.64 84.32000000000001 319.64 84.32000000000001C301.64 84.32000000000001 290.0 93.44 290.0 108.80000000000001C290.0 124.16 300.2 130.04 317.6 133.88L320.36 134.48000000000002C331.15999999999997 136.88 337.28 139.28 337.28 146.24C337.28 152.96 331.88 157.76 321.08 157.76C310.28 157.76 303.68 152.72 303.68 142.64V139.28H288.08V142.64C288.08 160.88 301.64 171.68 321.08 171.68Z M372.68 103.52C378.20000000000005 103.52 382.40000000000003 99.68 382.40000000000003 93.92C382.40000000000003 88.16 378.20000000000005 84.32000000000001 372.68 84.32000000000001C367.16 84.32000000000001 362.96000000000004 88.16 362.96000000000004 93.92C362.96000000000004 99.68 367.16 103.52 372.68 103.52ZM365.12 170.0H380.24V110.48H365.12Z M406.88 170.0H422.0V122.96000000000001H437.59999999999997V110.48H422.0V102.08C422.0 99.68 423.2 98.48 425.36 98.48H435.68V86.0H420.08C412.15999999999997 86.0 406.88 91.28 406.88 99.44V110.48H391.76V122.96000000000001H406.88Z M467.84000000000003 171.68C480.32000000000005 171.68 484.04 164.96 485.12 161.96H487.40000000000003V162.08C487.40000000000003 166.88 491.72 170.0 497.6 170.0H507.68000000000006V157.52H502.88000000000005C500.72 157.52 499.52000000000004 156.32 499.52000000000004 153.92000000000002V131.72C499.52000000000004 116.84 489.68000000000006 108.80000000000001 474.08000000000004 108.80000000000001C458.6 108.80000000000001 450.8 116.6 447.92 125.6L461.84000000000003 130.28C462.92 124.88 466.28000000000003 121.03999999999999 473.84000000000003 121.03999999999999C481.52000000000004 121.03999999999999 484.88000000000005 125.12 484.88000000000005 130.64V134.0H468.56000000000006C455.12000000000006 134.0 445.52000000000004 140.36 445.52000000000004 152.6C445.52000000000004 164.84 455.12000000000006 171.68 467.84000000000003 171.68ZM470.48 159.44C464.00000000000006 159.44 460.64000000000004 156.44 460.64000000000004 152.12C460.64000000000004 147.8 464.00000000000006 145.28 469.64000000000004 145.28H484.88000000000005V146.48C484.88000000000005 154.4 478.88000000000005 159.44 470.48 159.44Z" fill="#4385BE"/>
</svg>
