<?xml version="1.0" encoding="UTF-8"?>
<svg xmlns="http://www.w3.org/2000/svg" viewBox="0 0 799 256" version="1.1" style="fill-rule:evenodd;clip-rule:evenodd;stroke-linecap:round;stroke-linejoin:round;">
    <g><g transform="matrix(0.333333,0,0,0.333333,37.583333,37.083333)">
        <path d="M128,71.5C159.183,71.5 184.5,96.817 184.5,128C184.5,159.183 159.183,184.5 128,184.5C96.817,184.5 71.5,159.183 71.5,128C71.5,96.817 96.817,71.5 128,71.5ZM128,104.5C115.03,104.5 104.5,115.03 104.5,128C104.5,140.97 115.03,151.5 128,151.5C140.97,151.5 151.5,140.97 151.5,128C151.5,115.03 140.97,104.5 128,104.5Z" style="fill:#DA702C;"/>
    </g>
    <g transform="matrix(0.333333,0,0,0.333333,37.583333,37.083333)">
        <path d="M174.866,194.259C182.45,189.218 192.7,191.282 197.741,198.866C202.782,206.45 200.718,216.7 193.134,221.741C175.432,233.507 150.846,240.5 128,240.5C66.284,240.5 15.5,189.716 15.5,128C15.5,66.284 66.284,15.5 128,15.5C189.716,15.5 240.5,66.284 240.5,128C240.5,160.538 225.46,184.5 196,184.5C166.54,184.5 151.5,160.538 151.5,128L151.5,88C151.5,78.893 158.893,71.5 168,71.5C177.107,71.5 184.5,78.893 184.5,88L184.5,128C184.5,134.408 185.237,140.363 187.279,145.164C188.851,148.858 191.536,151.5 196,151.5C200.464,151.5 203.149,148.858 204.721,145.164C206.763,140.363 207.5,134.408 207.5,128C207.5,84.388 171.612,48.5 128,48.5C84.388,48.5 48.5,84.388 48.5,128C48.5,171.612 84.388,207.5 128,207.5C144.415,207.5 162.148,202.713 174.866,194.259Z" style="fill:#DA702C;"/>
    </g>
    <rect x="148" y="51.75" width="56" height="56" rx="10" style="fill:none;stroke:#100F0F;stroke-width:12px;"/>
    <rect x="52" y="148" width="56" height="56" rx="10" style="fill:none;stroke:#100F0F;stroke-width:12px;"/>
    <circle cx="176" cy="156" r="10" style="fill:#8B7EC8;"/>
    <circle cx="158" cy="192" r="10" style="fill:#8B7EC8;"/>
    <circle cx="194" cy="192" r="10" style="fill:#8B7EC8;"/></g>
    <path d="M314.282 154.55800000000002C330.158 154.55800000000002 340.252 145.934 340.252 133.39000000000001C340.252 120.846 330.55 115.75 315.948 112.614L313.694 112.124C305.462 110.36000000000001 301.64 107.91 301.64 102.81400000000001C301.64 97.718 305.266 94.58200000000001 313.106 94.58200000000001C320.946 94.58200000000001 325.748 97.718 325.748 105.558V108.498H338.488V105.558C338.488 90.662 327.806 83.214 313.106 83.214C298.406 83.214 288.9 90.662 288.9 103.206C288.9 115.75 297.23 120.552 311.44 123.688L313.694 124.178C322.514 126.138 327.512 128.098 327.512 133.782C327.512 139.27 323.102 143.19 314.282 143.19C305.462 143.19 300.072 139.074 300.072 130.842V128.098H287.332V130.842C287.332 145.738 298.406 154.55800000000002 314.282 154.55800000000002Z M356.422 98.894C360.93000000000006 98.894 364.36 95.75800000000001 364.36 91.054C364.36 86.35000000000001 360.93000000000006 83.214 356.422 83.214C351.91400000000004 83.214 348.48400000000004 86.35000000000001 348.48400000000004 91.054C348.48400000000004 95.75800000000001 351.91400000000004 98.894 356.422 98.894ZM350.24800000000005 153.186H362.59600000000006V104.578H350.24800000000005Z M376.31600000000003 153.186H388.66400000000004V128.49C388.66400000000004 119.474 393.074 114.182 400.62 114.182C407.284 114.182 411.00800000000004 117.808 411.00800000000004 125.158V153.186H423.356V124.178C423.356 112.124 415.81 103.79400000000001 404.442 103.79400000000001C395.72 103.79400000000001 391.8 107.61600000000001 390.232 110.94800000000001H388.468V104.578H376.31600000000003Z M434.332 129.078C434.332 144.366 444.524 153.382 456.48 153.382C465.398 153.382 469.416 149.65800000000002 471.37600000000003 146.424H473.14V159.066C473.14 161.026 472.16 162.006 470.396 162.006H442.172V172.786H474.708C481.17600000000004 172.786 485.488 168.47400000000002 485.488 161.81V104.578H473.336V110.458H471.572C469.416 107.126 465.3 103.206 456.48 103.206C444.426 103.206 434.332 112.22200000000001 434.332 127.51ZM460.00800000000004 142.602C452.462 142.602 446.68 137.604 446.68 128.784V127.804C446.68 118.98400000000001 452.36400000000003 113.986 460.00800000000004 113.986C467.65200000000004 113.986 473.336 118.98400000000001 473.336 127.804V128.784C473.336 137.604 467.55400000000003 142.602 460.00800000000004 142.602Z M505.382 98.894C509.89 98.894 513.32 95.75800000000001 513.32 91.054C513.32 86.35000000000001 509.89 83.214 505.382 83.214C500.874 83.214 497.444 86.35000000000001 497.444 91.054C497.444 95.75800000000001 500.874 98.894 505.382 98.894ZM499.208 153.186H511.55600000000004V104.578H499.208Z M549.776 153.186H594.072V141.42600000000002H562.712V84.586H549.776Z M618.376 154.55800000000002C628.568 154.55800000000002 631.606 149.07 632.4879999999999 146.62H634.35V146.71800000000002C634.35 150.638 637.8779999999999 153.186 642.68 153.186H650.912V142.994H646.992C645.228 142.994 644.2479999999999 142.014 644.2479999999999 140.054V121.924C644.2479999999999 109.772 636.212 103.206 623.472 103.206C610.8299999999999 103.206 604.4599999999999 109.57600000000001 602.108 116.92600000000002L613.476 120.748C614.358 116.33800000000001 617.102 113.202 623.276 113.202C629.548 113.202 632.292 116.534 632.292 121.042V123.786H618.9639999999999C607.9879999999999 123.786 600.148 128.98000000000002 600.148 138.976C600.148 148.972 607.9879999999999 154.55800000000002 618.376 154.55800000000002ZM620.5319999999999 144.562C615.24 144.562 612.496 142.112 612.496 138.584C612.496 135.056 615.24 132.998 619.846 132.998H632.292V133.978C632.292 140.446 627.3919999999999 144.562 620.5319999999999 144.562Z M689.132 154.55800000000002C700.794 154.55800000000002 711.084 145.542 711.084 129.666V128.098C711.084 112.22200000000001 700.8919999999999 103.206 689.132 103.206C680.312 103.206 676.098 106.73400000000001 674.04 110.16400000000002H672.276V84.586H659.928V153.186H672.0799999999999V147.306H673.8439999999999C676.098 151.03 680.312 154.55800000000002 689.132 154.55800000000002ZM685.408 143.77800000000002C677.862 143.77800000000002 672.0799999999999 138.78 672.0799999999999 129.372V128.392C672.0799999999999 118.98400000000001 677.764 113.986 685.408 113.986C693.052 113.986 698.736 118.98400000000001 698.736 128.392V129.372C698.736 138.78 692.954 143.77800000000002 685.408 143.77800000000002Z M742.6400000000001 154.55800000000002C754.988 154.55800000000002 763.0240000000001 148.776 763.0240000000001 138.584C763.0240000000001 128.392 754.4000000000001 125.256 743.4240000000001 123.296L740.6800000000001 122.80600000000001C736.1720000000001 122.022 733.4280000000001 120.748 733.4280000000001 117.61200000000001C733.4280000000001 114.77000000000001 735.9760000000001 113.006 740.6800000000001 113.006C745.3840000000001 113.006 748.7160000000001 114.868 749.7940000000001 119.86600000000001L761.2600000000001 116.33800000000001C759.0060000000001 108.498 751.5580000000001 103.206 740.6800000000001 103.206C729.1160000000001 103.206 721.4720000000001 108.596 721.4720000000001 118.2C721.4720000000001 127.804 729.9000000000001 131.626 740.0920000000001 133.488L742.8360000000001 133.978C748.618 135.056 751.0680000000001 136.428 751.0680000000001 139.466C751.0680000000001 142.50400000000002 748.3240000000001 144.758 742.6400000000001 144.758C736.9560000000001 144.758 732.3500000000001 142.602 731.0760000000001 135.74200000000002L719.7080000000001 138.68200000000002C721.3740000000001 148.874 729.9000000000001 154.55800000000002 742.6400000000001 154.55800000000002Z" fill="#DA702C"/>
</svg>
