<svg width="64" height="64" viewBox="0 0 64 64" fill="none" xmlns="http://www.w3.org/2000/svg">
<g clip-path="url(#clip0_1_128)">
<path d="M9.83652 0C9.90386 0.229663 10.0321 0.239807 10.1771 0.28125C10.4844 0.369237 10.7666 0.341946 11.0756 0.344531C11.502 0.348847 11.901 0.471629 12.3248 0.407812C12.8135 0.333561 13.8077 0.396379 14.2998 0.36875L14.6818 0.346875C14.8985 0.389181 15.082 0.421503 15.3021 0.400781C15.8321 0.350734 16.3379 0.372871 16.867 0.395312L17.5717 0.425781C18.0171 0.444772 18.4661 0.386904 18.9193 0.385156L19.6498 0.383594L20.667 0.380469C21.2453 0.378742 21.6753 0.445793 22.0568 0.432031C22.6767 0.409583 23.2711 0.414721 23.885 0.424219C24.1569 0.428536 24.4352 0.411063 24.7037 0.434375C25.0567 0.465419 25.3849 0.428748 25.731 0.446875L27.2482 0.524219C27.678 0.54576 28.0914 0.508263 28.5271 0.561719C29.0115 0.621293 29.4767 0.672574 29.9576 0.673437H30.5396L31.6209 0.675L34.5943 0.720312L35.3623 0.7125L35.967 0.707031L36.5162 0.709375L37.6123 0.667187L38.1732 0.696875C38.2889 0.702919 38.3962 0.689021 38.5084 0.68125C38.9461 0.65277 39.376 0.687333 39.8232 0.672656L41.1818 0.627344L41.7935 0.625L43.4162 0.585156L44.4732 0.560937L45.092 0.546875L46.6865 0.475L47.7553 0.424219L48.5459 0.401562L49.0357 0.385937L49.8732 0.366406L51.2303 0.360156L52.7162 0.424219L53.285 0.419531C53.8004 0.416078 53.4137 0.604556 53.8092 1.30391L53.8623 1.67031L54.0185 2.62969C54.1187 3.24529 53.9447 3.87248 53.9404 4.49844C53.9361 5.11564 53.973 5.70007 53.9998 6.31641L54.067 7.81719L54.0506 9.02266C54.048 9.22722 54.0622 9.43795 54.0303 9.63906C54.0139 9.74223 53.9544 10.5854 53.9576 10.6539L54.0264 12.0492L54.0287 12.6273L54.0365 14.1414C54.0365 14.2363 54.0469 14.353 54.0529 14.4453C54.0719 14.7233 54.0711 14.9931 54.085 15.2711L54.1092 15.7633L54.1115 16.0937L54.1201 16.7703V17.1336C54.1176 17.8143 54.2433 17.6058 54.0818 18.4164C53.9982 18.8368 54.0558 19.298 54.0584 19.6312C54.061 19.9247 54.0179 20.24 53.9998 20.543L53.9553 21.2758L53.9287 21.7141C53.9045 22.1103 53.9336 22.4792 53.9396 22.8633L53.956 23.807L53.999 24.6492L54.0154 25.6523L54.0131 27.2852L53.9959 28.6312L53.9631 29.7414L53.9076 30.8391L53.8459 32.5352C53.8286 32.9996 53.8396 33.4538 53.881 33.907C53.9009 34.1254 53.8969 34.3473 53.8865 34.5734C53.8701 34.9274 53.8942 35.2639 53.8959 35.6187L53.9084 38.1969L53.8998 39.1602L53.9092 39.4875C53.9161 39.7197 53.8991 39.9359 53.8896 40.175C53.8854 40.2769 53.9206 40.4329 53.924 40.5484L53.9576 41.7367L53.9748 42.3375L53.9576 43.0602L53.9545 45.0414L53.9232 46.1945L53.9209 47.2273L53.942 47.8352L53.9482 48.2937L53.931 48.8898C53.9207 49.2377 53.971 49.5649 54.0107 49.9016C54.0427 50.1683 54.0121 50.426 54.0303 50.7031L54.0701 51.3187L54.0865 52.1492L54.1334 53.4789C54.1446 53.7879 54.1498 54.0857 54.1662 54.4008L54.21 55.243L54.2646 55.6078L54.249 56.5312L54.231 56.9281C54.2242 57.0679 54.2246 57.1966 54.2271 57.3312L54.2365 57.9312L54.2717 58.5453C54.2777 58.654 54.2478 58.7782 54.2443 58.8852C54.2184 59.5749 54.2746 60.1844 54.2514 60.7766L54.2373 61.1234L54.2256 61.6383L54.206 62.4047L54.2021 63.0359C54.2006 63.2577 54.3874 63.4769 54.106 63.6961C54.0483 63.7409 53.9967 63.797 53.9545 63.8031C53.9123 63.8092 53.8175 63.7412 53.7717 63.7375C53.6499 63.7271 53.5245 63.7175 53.3959 63.6727L53.1389 63.7602L52.8935 63.6969C52.8833 63.6943 52.8225 63.6929 52.8115 63.6937L52.7303 63.7008L52.6607 63.7055C52.6455 63.7061 52.6465 63.6869 52.631 63.6234C52.5189 63.5932 52.3349 63.6403 52.1959 63.6516C52.0293 63.6654 51.8895 63.5894 51.7264 63.7102C51.6452 63.7706 51.4695 63.74 51.3529 63.7383C51.0085 63.7331 50.6607 63.7193 50.324 63.7633C50.0633 63.7978 49.8413 63.7723 49.5771 63.768L48.8482 63.7539L47.5232 63.7586L46.4451 63.7547C46.2624 63.7547 46.1039 63.7294 45.9264 63.657L45.7959 63.7484C45.0199 63.8641 44.9542 63.6899 44.324 63.7711C44.1928 63.7883 44.007 63.7446 43.874 63.7523L43.3021 63.7859L42.7467 63.8227L42.3435 63.8516C42.2037 63.8619 42.049 63.8541 41.9092 63.8516L41.5537 63.8422L40.3896 63.8609C40.204 63.8644 40.04 63.8496 39.8717 63.8047C39.7974 63.8142 39.665 63.8319 39.5795 63.8336L39.2162 63.8422C39.117 63.8448 38.9712 63.8449 38.8779 63.8328C38.5455 63.7896 38.2571 63.7859 37.9342 63.7781L37.4975 63.768C37.3973 63.7654 37.3157 63.767 37.206 63.7773L36.9389 63.7266L36.5685 63.7375L35.9982 63.7539L35.6834 63.7695L35.3264 63.7891C35.0624 63.8037 34.813 63.8309 34.549 63.8344L33.781 63.843C33.5463 63.8455 33.2857 63.7778 33.0639 63.8062L32.5154 63.8766C32.461 63.8835 32.3187 63.8911 32.2678 63.8617C32.1244 63.778 31.8893 63.8577 31.7451 63.8586L30.5826 63.868C30.0059 63.8723 30.1117 63.9148 29.4857 63.907L29.0553 63.9016L28.6482 63.8961C28.3789 63.8926 28.1302 63.8863 27.8678 63.907C27.7288 63.9182 27.5844 63.9018 27.442 63.8992L26.3537 63.8781C25.7028 63.866 25.4565 63.7775 24.8256 63.85C24.6037 63.8759 24.4004 63.85 24.1803 63.8336C23.734 63.8008 22.6882 63.8773 22.4037 63.7781C22.2966 63.741 21.215 63.8258 21.0717 63.8258L20.3318 63.8273L19.724 63.8586C19.5247 63.869 19.3254 63.8969 19.1373 63.8961L18.2904 63.8914C18.0815 63.8905 17.8875 63.8566 17.6803 63.8695C17.3679 63.8902 17.066 63.8964 16.7459 63.893C16.3617 63.8886 15.9962 63.8995 15.6154 63.9133L14.8139 63.9422L13.2123 63.9992C12.9948 64.007 12.7825 63.9881 12.5693 63.982L11.8607 63.9609L10.9982 63.9328C10.8782 63.9285 10.7489 63.9085 10.635 63.9094L9.8248 63.918C9.75319 63.899 9.79445 63.7145 9.81777 63.6367C9.89201 63.3838 9.85383 63.1211 9.86074 62.8664L9.89277 61.7687L9.9412 60.4141C9.94811 60.2173 9.95156 60.0469 9.9412 59.8484C9.92136 59.4802 9.90134 58.1535 9.95136 57.8562C10.055 57.2424 10.1308 56.6619 10.174 56.0445L10.2303 55.232C10.2338 55.1829 10.2754 55.1242 10.3271 55.0414L10.2373 55.0344C10.214 54.7918 10.2014 54.5276 10.2014 54.2617V52.1562L10.2154 51.1227L10.2185 50.6703C10.2203 50.3396 10.2255 50.0311 10.1935 49.6953C10.1746 49.4882 10.1791 49.2801 10.1834 49.0781L10.1896 48.7711L10.2365 47.2891C10.2486 46.891 10.2151 46.9139 10.2185 46.5703L10.2381 44.7969L10.2475 43.9461L10.2748 43.1898L10.2834 42.393L10.2951 41.9758L10.3217 41.0391L10.3295 40.3344L10.3037 39.3641L10.2654 38.5453L10.2553 38.1859L10.2357 37.5125L10.1834 35.8422L10.1912 35.343L10.1826 34.668V33.7727L10.1771 33.4922L10.1482 32.65L10.1287 32.082C10.1244 31.9578 10.0823 31.8361 10.0779 31.7187L10.0568 31.1859C10.0396 30.7466 10.0247 30.3226 10.0178 29.8781C10.0143 29.6571 10.0683 29.4362 10.0787 29.2195L10.1123 28.507C10.1339 28.0581 10.044 27.8134 10.0881 27.5164C10.1235 27.2755 10.1199 27.0205 10.0975 26.7719L10.0623 26.3797L10.0553 25.9664L10.0498 25.3375L10.042 24.9047C10.0316 24.3461 10.0329 23.8083 10.0709 23.2445C10.0925 22.92 10.0611 22.6012 10.0576 22.2836L10.0521 21.7531L10.0271 20.8125C10.0107 20.2005 10.0625 20.0325 10.06 19.3922L10.0537 17.9141L10.0568 17.3695L10.0428 16.8969L10.0154 15.8125L9.95917 14.8C9.92034 14.1042 9.91962 13.4402 9.9412 12.7461C9.95759 12.191 9.92718 11.6558 9.91855 11.1016L9.89589 9.63359L9.90058 8.77109C9.90231 8.49917 9.90711 8.24343 9.89589 7.96719L9.83574 6.55937L9.78574 5.43047C9.76502 4.96779 9.74812 4.52745 9.75761 4.06562L9.77089 3.42187L9.82167 2.59531C9.83635 2.35875 9.79581 2.13306 9.79667 1.89219L9.80058 1.04375C9.80058 0.833231 9.81861 0.602 9.75917 0.399219C9.71774 0.255925 9.68208 0.121718 9.83652 0ZM28.9764 41.7852C28.9434 41.8871 28.8049 42.0784 28.785 42.1828C28.7003 42.6439 28.653 43.0802 28.6115 43.543C28.5943 43.7329 28.6058 43.9385 28.567 44.1094C28.5333 44.2595 28.487 44.413 28.474 44.5562L28.4209 45.1141C28.3803 45.5457 28.4233 45.9601 28.381 46.3883L28.2545 47.6805C28.2338 47.89 28.2512 47.9843 28.1787 48.1836C28.0786 48.4573 28.157 49.0916 28.0975 49.4258L28.0014 49.9617L27.8506 51.0211C27.8186 51.2473 27.7488 51.4825 27.7428 51.707C27.7315 52.0877 27.7322 52.4441 27.6615 52.8109L27.4404 53.9586C27.4335 53.9931 27.4257 54.5787 27.3998 54.8437C27.3463 55.3946 27.3192 55.9353 27.2959 56.4922L27.2678 57.1906L27.1959 58.0742C27.1596 58.5249 27.1728 58.9642 27.1201 59.4227C27.0813 59.7636 27.1242 60.1217 27.056 60.4445C27.0198 60.6146 26.9247 60.7661 26.942 60.95L26.9818 61.3828C27.1018 61.2974 27.196 61.2345 27.2521 61.2086C27.3298 61.3795 27.3611 61.4408 27.456 61.5547C27.7106 61.3837 27.6851 61.1343 27.7498 60.8805L27.8732 60.3961L27.8748 60.3953C27.9836 59.9688 28.0568 59.5551 28.0982 59.1398L28.1857 58.2672L28.285 57.5727C28.3324 57.2413 28.3266 56.8978 28.3568 56.5578L28.474 55.2359C28.4861 55.097 28.5309 54.9207 28.5318 54.793L28.5381 54.2172C28.5398 54.0403 28.5015 53.8293 28.5498 53.6602C28.6758 53.2199 28.514 53.4182 28.5865 52.8633L28.7068 51.9375C28.7155 51.8736 28.7188 51.7666 28.724 51.6984L28.781 50.9977L28.8467 50.182C28.8855 49.6986 28.9288 49.2376 29.0756 48.7602C29.1127 48.6402 29.0931 48.4971 29.0982 48.3711L29.1185 47.882L29.1646 47.0758L29.2107 46.2273C29.2246 45.977 29.2908 45.7199 29.3365 45.4695C29.3865 45.1925 29.3702 44.9146 29.4021 44.6367C29.422 44.4675 29.4912 44.2897 29.499 44.1102L29.5334 43.2969C29.542 43.0914 29.5178 42.8784 29.5092 42.6617C29.4867 42.1365 29.4012 42.4624 29.4279 41.8094L28.9764 41.7852ZM22.7709 51.2711C22.3853 51.1229 22.6221 51.5976 22.5271 52.2148C22.4978 52.4064 22.5192 52.6178 22.5037 52.8086L22.474 53.1516C22.4671 53.2379 22.4327 53.3502 22.4318 53.4391C22.4283 53.9173 22.2428 54.3991 22.2834 54.8687C22.3067 55.1407 22.2912 55.3453 22.2506 55.6164L22.1326 56.4016L22.0568 56.8164C22.0102 57.0771 21.8922 58.3243 22.0209 58.5781L21.9459 58.8242L21.9521 59.4578C21.9582 60.1508 22.145 60.0025 22.0381 60.4391L21.9435 60.825C22.0161 60.9787 22.3222 61.0987 22.481 61.0141C22.6744 60.9114 22.8596 60.9237 23.0115 61.0852L23.3951 61.1203C23.5574 61.135 23.716 61.1127 23.817 61.2828C24 61.5884 24.1167 61.2834 24.5303 61.318C24.2455 60.8311 24.7581 60.8585 24.4654 60.0867C24.4302 59.9927 24.459 59.825 24.4256 59.7516L24.4271 59.7531C24.384 59.6581 24.3199 59.5274 24.2975 59.4445L24.2185 59.1469L24.0584 58.5641L23.9748 58.1273C23.9446 57.9693 23.8553 57.5436 23.7232 57.4383L23.71 57.268L23.6662 56.6562L23.6232 56.3258C23.5973 56.1299 23.5448 55.9452 23.4904 55.7648C23.3963 55.4516 23.2982 55.3257 23.3568 55.1867C23.1764 55.1505 23.272 54.9065 23.2115 54.8219C23.1278 54.7046 23.0193 54.589 23.0209 54.4148L23.0256 54.0102C22.9818 53.9895 22.8142 53.8348 22.8271 53.7453L22.8982 53.2578C22.9077 53.1931 22.8949 53.1142 22.8803 53.0391C22.8432 52.8482 22.8732 52.383 22.8326 52.1836C22.8119 52.0791 22.7835 51.8934 22.856 51.8148C22.8827 51.7852 22.9006 51.6582 22.8662 51.6555L22.7021 51.6406L22.706 51.3969L22.635 51.3437C22.6212 51.3334 22.6701 51.3077 22.6857 51.3016L22.7709 51.2711ZM47.0115 43.6156C46.6958 43.7824 46.5273 43.178 46.4678 43.5008C46.4212 43.7544 46.3605 43.9666 46.2725 44.2047C46.1404 44.5587 46.1956 44.6325 46.0428 45.0625C45.9867 45.2186 45.9617 45.3576 45.9264 45.5172C45.8305 45.9506 45.6176 46.3611 45.5951 46.8031C45.564 47.4168 45.4313 47.4575 45.3217 48.0531C45.2353 48.5219 45.1736 48.9718 45.0303 49.4242C44.8948 49.8507 45.0838 49.9425 44.8326 50.5969C44.7895 50.709 44.7557 50.8032 44.7342 50.9102L44.5771 51.6711L44.3279 52.6367L44.256 52.918L43.9795 53.7734L43.7904 54.5867L43.6529 55.1969L43.4967 55.8641C43.4492 56.0661 43.4055 56.285 43.3451 56.4836C43.2157 56.9125 43.1622 57.3225 43.0475 57.7531L42.885 58.3641C42.8479 58.5022 42.8263 58.6679 42.7857 58.8086L42.542 59.6641L42.4076 60.1758C42.3765 60.294 42.3715 60.5063 42.3232 60.6039C42.2335 60.7843 42.1397 60.9797 42.1396 61.1859C42.9081 61.2023 42.7384 61.4723 43.7123 61.4023H43.71L44.1021 61.0875C44.0858 60.4904 44.3245 60.9078 44.4678 60.25L44.6193 59.5477C44.7151 59.1057 44.9232 58.717 44.9975 58.2742C45.0527 57.9435 45.1325 57.6192 45.2076 57.2859L45.3271 56.7578C45.5689 55.6915 45.6513 56.0102 45.7834 54.6383C45.8076 54.3914 45.9087 54.1333 45.9459 53.8898L46.0232 53.3766L46.1037 52.8805L46.1537 52.5719C46.2141 52.2033 46.2457 51.8414 46.3545 51.4797L46.6889 50.3711C46.7743 50.0863 46.8523 49.8042 46.9248 49.5125L47.1334 48.675C47.2059 48.3858 47.2517 48.1058 47.3225 47.8148L47.6357 46.5297C47.7229 46.1732 47.7866 45.8173 47.9178 45.4781L48.0498 45.1391C48.1483 44.8851 48.6207 43.8568 48.5139 43.7062C47.6481 43.4188 48.1351 43.49 47.567 43.5539C47.3857 43.5746 47.1971 43.5181 47.0115 43.6156ZM16.7271 56.8633C16.671 56.8618 16.5609 56.9366 16.5264 56.9875C16.4176 57.1472 16.2895 57.1051 16.1271 57.0922L15.7404 57.0617C15.6585 57.0556 15.5371 56.9492 15.4654 56.9516L14.2951 56.9945C14.1501 56.9997 13.9906 57.018 13.8404 57.0508C13.5115 57.1212 13.3544 57.8253 13.3459 57.8422L12.9935 58.2758C12.8511 58.451 12.7977 58.6743 12.6717 58.8789C12.657 58.979 12.6722 59.1452 12.5912 59.2367C12.3866 59.4664 12.4236 59.7936 12.3045 60.0578C12.2389 60.2037 12.1344 60.349 12.0826 60.4992L11.9146 60.9883C11.8793 61.0909 11.8451 61.211 11.8795 61.343C11.9986 61.3853 12.1841 61.3195 12.3326 61.3281L13.0435 61.3687V61.3664C13.2058 61.3759 13.332 61.3376 13.4623 61.3445L13.8029 61.3625C14.5195 61.4005 14.1254 61.2801 14.8584 61.1937L15.4607 61.1234C15.6265 61.1044 15.958 60.8818 16.1178 60.9914C16.1747 61.0303 16.2253 61.12 16.3029 61.2305C16.3979 60.9801 16.4419 60.7092 16.4592 60.4398L16.4756 60.1852C16.4928 59.9151 16.5182 59.6657 16.5545 59.3844C16.6149 59.1876 16.8854 58.8776 16.9045 58.7273C16.9105 58.6756 16.8196 58.5797 16.8092 58.5219C16.7013 57.9159 16.5888 58.3223 16.7467 57.7891L16.8771 57.3484C16.9142 57.2215 16.8178 57.0014 16.7271 56.8633ZM21.1592 43.1094C21.098 43.1189 21.0221 43.2247 20.985 43.2852C20.7061 43.1479 20.8682 43.3292 20.3467 43.2687C20.1361 43.2447 19.8575 43.4786 19.8865 43.7047C19.9133 43.9101 20.1301 44.1169 20.0068 44.3344C19.9291 44.4708 19.947 44.6403 19.9029 44.7836C19.8347 45.0045 19.665 45.209 19.6045 45.4531C19.5225 45.7837 19.5348 46.1258 19.5443 46.4719C19.5452 46.5168 19.5416 46.5979 19.5701 46.6117C19.5986 46.6254 19.6655 46.613 19.6709 46.5812L19.6842 46.4937C19.6876 46.4748 19.7632 46.4851 19.7631 46.5039L19.756 46.5914L19.7482 46.6883C19.7451 46.7107 19.5406 46.7384 19.5756 46.7805L19.6326 46.8484C19.6853 46.9123 19.7426 46.9728 19.7685 47.0203C19.7945 47.0678 19.6979 47.2036 19.71 47.2641C19.7557 47.4979 19.7365 47.8413 19.6787 48.0977C19.6286 48.3213 19.6264 48.5422 19.5935 48.7641C19.5479 49.072 19.5332 49.4137 19.5935 49.7156L19.667 50.0805C19.7498 50.4931 19.6141 50.1349 19.5623 50.6961C19.5338 51.0112 19.4762 51.311 19.5021 51.6148C19.5185 51.8132 19.4843 51.9583 19.342 52.1023C19.3066 52.1438 19.4274 52.2426 19.499 52.2711L19.4639 52.8625C19.4553 53.0092 19.4721 53.1759 19.4514 53.3148C19.4272 53.4753 19.3938 53.623 19.4154 53.7922C19.4352 53.9501 19.403 54.0849 19.3857 54.2359C19.359 54.4706 19.3361 54.7097 19.324 54.9461L19.2881 55.6055C19.276 55.8247 19.3028 56.05 19.2467 56.2562C19.1992 56.4288 19.2546 56.6273 19.2357 56.8094L19.1631 57.493L19.131 58.0375L19.081 58.6406C19.0456 59.0654 19.0543 59.4113 19.0154 59.7852C18.9956 59.9775 18.982 60.1475 18.9717 60.3477L18.9725 60.3469C18.9638 60.523 18.8376 60.7927 19.0068 60.9437C19.0458 60.9756 19.1837 60.9876 19.1865 61.0367L19.2006 61.2766L19.5412 61.2281C19.7161 60.9944 19.4275 60.9246 19.574 60.6555C19.6396 60.5346 19.6236 60.4425 19.6037 60.3078C19.5667 60.0618 19.6775 59.7848 19.6568 59.5492C19.6473 59.4396 19.6388 59.3626 19.6475 59.2547L19.6803 58.8383L19.7279 58.7602C19.7382 58.7429 19.6894 58.688 19.6967 58.668L19.7396 58.5664C19.7486 58.544 19.6531 58.5037 19.6467 58.4805C19.6234 58.3951 19.7224 58.2079 19.7209 58.118C19.7183 58.0057 19.683 57.8544 19.7037 57.7258C19.7814 57.2302 19.7531 56.7188 19.8412 56.2336L19.8842 55.9992C19.9938 55.4 19.8471 55.004 20.0146 54.6414C20.0784 54.5026 20.1171 54.4004 20.1326 54.2391L20.306 52.432L20.3342 52.125L20.442 50.9406C20.4541 50.812 20.4826 50.6966 20.5076 50.568C20.562 50.2832 20.5766 49.9897 20.6068 49.6945L20.6654 49.1242L20.7201 48.4453C20.74 48.1941 20.7692 47.9494 20.7787 47.7008C20.7934 47.3296 20.8145 46.9782 20.874 46.607C20.8921 46.4957 20.8501 46.3493 20.8553 46.2578C20.8898 45.5614 20.8884 45.7339 21.1318 45.2703C21.1835 45.1719 21.1473 45.0481 21.1568 44.9445C21.1726 44.7715 21.3323 44.2394 21.4014 44.0539C21.4601 43.8977 21.5682 43.8191 21.4982 43.6266L21.3662 43.2648C21.3325 43.1733 21.2438 43.0956 21.1592 43.1094ZM35.3342 40.3586C35.2297 40.3476 35.0591 40.4639 34.9443 40.507C34.7294 40.589 34.5074 40.6177 34.2795 40.6695C34.1051 40.7092 33.9056 40.8284 33.7217 40.8336C33.4454 40.8422 33.2581 40.8697 33.006 40.95L32.5935 41.0828C32.3777 41.1519 32.3161 41.2179 32.235 41.4406C32.1641 41.6342 31.9758 42.2409 31.9904 42.4109L32.0279 42.8391C32.053 43.1309 31.9697 43.2889 31.8756 43.6773L31.7365 44.2523L31.4881 45.5422C31.2921 46.56 31.3881 45.9854 31.3381 46.9227L31.2912 47.8008L31.2318 48.5109V48.8586C31.2336 49.3662 31.1105 49.6918 31.1623 50.0578C31.1822 50.1985 31.3022 50.3911 31.285 50.5336L31.2225 51.0492C31.1983 51.2478 31.1184 51.4475 31.1115 51.6469L31.0889 52.3047L31.042 52.9117C31.0126 53.2924 30.9952 53.6214 31.0193 54.0047C31.0253 54.1006 30.9809 54.2843 30.9662 54.4008L30.8717 55.1703L30.7967 55.8922C30.7803 56.0527 30.7545 56.209 30.7295 56.3703L30.531 57.6586C30.4974 57.8769 30.4527 58.0797 30.4467 58.3023C30.4406 58.5406 30.3985 58.7608 30.3631 58.9922L30.281 59.5297C30.2223 59.9164 30.0635 60.4191 30.281 60.7695C30.3485 60.879 30.5513 60.9477 30.6506 61.0383C31.1332 61.4777 31.2483 61.0598 31.6748 61.2602C31.9016 61.1944 31.9553 60.9318 32.2935 61.1898L32.299 61.1867C32.3982 61.1571 32.5165 61.0042 32.5967 60.9602C32.7668 60.8669 32.9127 60.7559 33.0482 60.6039L33.5553 60.0352C33.6182 59.9654 33.6645 59.9074 33.7412 59.8453C33.8845 59.7305 33.9636 59.5318 34.081 59.3859L34.674 58.6414C34.7033 58.5292 34.7229 58.3404 34.76 58.2266L34.9021 57.7891C34.979 57.5516 35.0028 57.3363 34.9795 57.0859C34.9216 56.4652 34.9373 56.1421 34.7318 55.5437L34.6404 55.2773L34.5779 55.093C34.4874 55.0402 34.4373 54.9297 34.3795 54.8133C34.1939 54.4378 34.0131 54.0714 33.9475 53.657C33.5457 53.474 33.773 53.2342 33.4709 52.9227C33.4113 52.302 33.4217 52.775 33.331 52.4367C33.2646 52.1881 33.1481 51.9744 33.0428 51.7344C32.973 51.5747 32.9859 51.3608 32.9428 51.1891L32.71 50.2586C32.653 50.0324 32.6561 49.8022 32.6639 49.5734L32.6889 48.8523L32.6451 48.4953C32.6253 48.3322 32.6354 48.1802 32.6475 48.0258L32.7139 47.1922C32.7536 46.6915 32.6676 46.4213 32.8092 45.9672C33.0112 45.318 32.8593 45.5009 32.9576 44.9961L33.031 44.6156C33.0923 44.3006 33.1487 43.9991 33.2514 43.6953L33.4162 43.2094C33.4343 43.1549 33.4392 43.0298 33.4435 42.9539C33.6559 42.7735 33.8094 42.5262 33.9053 42.2586C33.9647 42.2224 34.1215 42.1873 34.1607 42.1391L34.3873 41.8547L34.9342 41.3391L35.1584 41.1359C35.5114 41.0643 35.7329 40.7446 35.6881 40.3977L35.3342 40.3586ZM50.1092 57.2203C50.1143 57.2324 50.0642 57.2934 50.0451 57.2937L48.756 57.3297C48.4271 57.3383 48.1454 57.3341 47.8225 57.3289C47.7913 57.8577 47.5541 57.8087 47.5256 58.1969C47.4746 58.8988 47.1338 58.8913 47.1131 59.8695C47.1096 60.0413 47.2335 60.2781 47.0514 60.4094C46.977 60.4629 46.8294 60.5494 46.8217 60.6719L46.8014 60.9898C47.1596 60.8088 47.6766 61.1113 47.9123 61.1148C48.7377 61.1278 48.7654 61.1937 49.7014 61.1445C50.0847 61.1238 50.7877 61.1863 50.9232 61.1664L50.9248 61.1672L51.2639 61.1164C51.3821 61.0983 51.5162 61.0206 51.6482 60.9602L51.2396 60.7461L51.481 60.2773C51.4897 60.2601 51.5521 60.2249 51.5443 60.2094C51.5363 60.1935 51.5085 60.1515 51.5076 60.1344C51.4938 59.8817 51.4499 59.7466 51.5842 59.7266C51.5592 59.7153 51.4993 59.6281 51.5076 59.5789C51.5145 59.54 51.5516 59.4894 51.5904 59.4367C51.4162 59.34 51.5055 59.1608 51.4943 59.0391L51.467 58.7258C51.4532 58.5756 51.358 58.5882 51.4451 58.0531C51.4555 57.9866 51.4634 57.886 51.5092 57.8609L51.7193 57.7437L51.2365 57.5477C51.183 57.5261 51.0757 57.4145 51.0498 57.4016C50.9436 57.4292 50.8926 57.4237 50.7795 57.4047L50.1771 57.3016C50.159 57.2981 50.0991 57.1976 50.1092 57.2203ZM44.4857 38.5867C44.1784 38.7395 43.7135 38.8926 43.356 38.9453C43.2542 38.9739 43.1232 39.1025 43.0412 39.1086C42.4498 39.1526 42.3954 39.0516 41.8006 39.2898C41.5277 39.3986 41.2838 39.5265 41.0334 39.6836L40.6904 39.8992L40.1779 40.2359L39.4732 40.7016L39.024 40.9781L38.7193 41.1992C38.6434 41.2545 38.5261 41.3447 38.4545 41.4086L37.1271 42.6078C36.8095 42.8953 36.5719 43.3424 36.3803 43.5945C36.0971 43.9675 35.64 44.651 35.506 45.0672C35.424 45.3219 35.327 45.5555 35.2959 45.8102L35.206 46.5297C35.1827 46.7136 35.1824 46.8987 35.1678 47.0844L35.1404 47.443L35.1006 47.9109C35.0799 48.1526 35.0794 48.3865 35.0881 48.6273L35.1006 48.9477C35.1248 49.5787 35.1499 49.8036 35.3545 50.382L35.6928 51.3375C35.8533 51.7915 35.9903 51.8315 36.1975 52.3156C36.346 52.6627 36.6596 53.3865 36.8443 53.6758C37.1034 54.0808 37.6397 55.5018 37.6553 55.7703L37.7014 56.568C37.7144 56.7985 37.9651 57.1542 37.7373 57.868C37.6769 58.0561 37.6274 58.2202 37.592 58.4109L37.5303 58.7414C37.4344 59.2498 37.1499 59.6837 36.8357 60.0937C36.6035 60.3977 36.4583 60.7393 36.3357 61.1141C36.7389 61.2012 36.8929 60.8123 37.1959 60.9969C37.4359 61.1428 37.6555 61.085 37.899 61.0375L38.3834 60.943C38.475 60.925 38.6891 60.9675 38.7428 60.8883C38.8351 60.7502 38.8959 60.752 39.0451 60.6727C39.1945 60.5932 39.447 60.3514 39.4678 60.1891C39.4885 60.0267 39.4871 59.8962 39.5381 59.7312H39.5357L39.6529 59.3437L39.9146 58.1391L40.006 57.7594C40.1502 57.1611 40.2721 56.5733 40.4982 55.9992C40.7244 55.4251 40.7087 54.8191 40.8615 54.2484C40.9617 53.8738 41.1158 53.5268 41.2185 53.1461L41.4412 52.318L41.706 51.6281C41.8105 51.3571 41.868 51.1257 41.9975 50.8633C42.063 50.7295 42.132 50.5515 42.1717 50.4031L42.3271 49.8156C42.448 49.3563 42.5476 48.9092 42.6365 48.443C42.6521 48.3627 42.6942 48.2451 42.7287 48.1719C43.0324 47.5254 43.1166 46.8384 43.2443 46.1453L43.4225 45.1703L43.6264 44.2406C43.6592 44.0922 43.7715 43.8908 43.6818 43.7414C43.6447 43.6792 43.5066 43.6158 43.4435 43.5727C43.4186 43.5553 43.373 43.4709 43.3514 43.4898L43.2584 43.5727C43.1229 43.6935 42.8995 43.6659 42.7217 43.6875C42.5318 43.7099 42.436 43.6748 42.3178 43.5367C42.2418 43.4486 42.0566 43.537 42.01 43.6492C41.9347 43.8299 41.7244 43.6735 41.4467 43.757C41.2317 43.5921 40.9722 43.6498 40.5475 43.5453L40.249 43.4719C40.1964 43.4589 40.1036 43.438 40.0881 43.4328L40.0959 42.9477L40.1053 42.3445C40.1079 42.1547 40.1846 41.9319 40.1045 41.7437C40.0389 41.5901 40.0064 41.4159 40.1592 41.3062L40.6373 40.9648C40.7176 41.0779 40.8162 41.097 40.956 41.1039C41.3316 41.122 41.6952 41.1954 42.0639 41.0633C42.1898 41.0184 42.3053 41.0421 42.4381 41.043L43.567 41.0477L44.1123 41.0328C44.1779 41.0311 44.2613 41.0273 44.3131 41.0195C44.4439 41.001 44.3296 40.6383 44.6685 40.3906C44.8309 40.2715 44.8586 40.1138 44.8975 39.9273L45.0154 39.3602C44.9818 39.273 44.9328 39.1608 44.9725 39.0703C45.0467 38.9011 45.3878 38.7747 45.2264 38.6789C45.0132 38.553 44.7955 38.6021 44.5935 38.6539C44.5879 38.6321 44.5185 38.5707 44.4857 38.5867ZM17.3678 48.2023C17.259 48.4009 17.2038 48.5664 17.1373 48.7641L16.8748 49.5414L16.5107 50.4117L16.4037 50.7156C16.3545 50.8546 16.3295 51.0208 16.231 51.1391C16.0101 51.4066 15.8409 51.6766 15.7123 51.9984C15.6389 52.1831 15.5559 52.3716 15.5162 52.5641C15.3884 53.1761 15.3278 53.0349 15.1639 53.5664L14.824 53.9937C14.7221 54.1224 14.6599 54.1559 14.6685 54.3398C14.6719 54.4089 14.637 54.5213 14.6732 54.5695C14.877 54.8387 15.164 54.8167 15.3271 54.8469C15.5952 54.896 15.8745 54.8741 16.1443 54.8336C16.228 54.8215 16.3895 55.0325 16.4646 54.8758C16.4862 54.83 16.5283 54.7664 16.5568 54.7422C16.6302 54.6792 16.8271 54.8066 16.8935 54.7203C16.9177 54.6892 16.9453 54.6134 16.96 54.5617L17.11 54.0078C17.0651 53.9095 17.0548 53.8267 17.0685 53.7344L17.0998 53.5227C17.0646 53.5201 17.0187 53.5286 17.0217 53.5117C17.0251 53.4944 17.045 53.4085 17.0381 53.393C16.9779 53.2616 17.1075 52.9896 17.117 52.843L17.1865 51.7859C17.2072 51.4743 17.1971 51.158 17.2748 50.8602C17.3456 50.5865 17.2975 50.3331 17.3131 50.0758C17.3425 49.5872 17.5979 49.1253 17.5771 48.6203L17.5654 48.3594L17.3678 48.2023ZM51.6068 42.2734C51.6119 42.2052 51.4661 42.1165 51.4264 42.1734C51.3892 42.2265 51.2161 42.8391 51.324 42.8633C51.2852 42.9746 51.2316 43.1273 51.185 43.2594L51.0498 43.6422C51.0309 43.6958 51.0355 43.7975 51.0381 43.8492L50.9396 44.2547L50.8115 44.7617L50.4896 45.9508L50.3404 46.5078L50.2365 46.9719L50.0975 47.5969L50.0615 47.8469C50.033 48.0393 49.968 48.2274 49.924 48.4164L49.7404 49.2016C49.7266 49.2593 49.6888 49.3513 49.6826 49.4117C49.674 49.4945 49.6733 49.6207 49.6553 49.682L49.4818 50.2734C49.3929 50.5756 49.3095 50.8791 49.2404 51.1891L49.0881 51.8695L49.0264 52.2469C48.9875 52.4842 48.9434 52.712 48.8709 52.9477L48.742 53.3641L48.5459 54.0773C48.5037 54.23 48.5045 54.4016 48.5553 54.5508C48.7131 54.4438 48.9481 54.3569 49.0975 54.4859C49.2546 54.6224 49.3935 54.4657 49.5092 54.5062L49.5045 54.5039C49.7193 54.5781 49.8119 54.6185 50.0225 54.5461C50.1606 54.4986 50.3929 54.461 50.556 54.4937L51.0662 54.5977C51.2586 54.6365 51.2499 54.4003 51.249 54.2828L51.2404 52.9086C51.2405 52.7818 51.2694 52.691 51.31 52.5219C51.397 52.5408 51.3415 52.5289 51.2646 52.5125C51.2215 52.2078 51.1954 51.9099 51.2006 51.5836L51.2092 51.0398C51.2135 50.7618 51.1954 50.4992 51.2256 50.2203L51.3029 49.5055C51.3107 49.4348 51.2613 49.2846 51.2646 49.2172C51.3234 48.2398 51.1305 48.6394 51.3006 47.5766C51.3265 47.4168 51.3369 47.3044 51.3248 47.1516C51.3119 46.9832 51.3817 46.7761 51.3826 46.6078L51.3842 46.1539L51.3912 45.7203L51.3998 45.4336C51.4033 45.3248 51.4419 45.1884 51.4428 45.1055L51.4475 44.8617C51.4509 44.6572 51.4764 44.5002 51.3935 44.3086C51.3306 44.1637 51.4372 43.9489 51.4529 43.8047L51.5076 43.2937L51.5318 43.0352C51.556 42.7744 51.5878 42.5342 51.6068 42.2734ZM16.767 44.1461C16.5883 44.1668 16.4716 44.2164 16.324 44.3398C16.2023 44.4414 16.0096 44.3554 15.8568 44.3477C15.5115 44.3306 14.9771 44.6097 14.2193 44.6633C13.2135 44.7349 13.6147 44.9305 12.9076 45.0125C12.6514 45.3535 12.7478 45.7742 12.7771 46.1531C12.8487 47.0983 12.6932 47.9589 12.6975 48.8687C12.6992 49.2918 12.6079 50.4798 12.4818 50.8719C12.3826 51.18 12.3361 51.4686 12.4482 51.7914C12.1089 52.4951 12.4483 52.1561 12.2584 52.6828C12.1972 52.8545 12.162 53.0814 12.149 53.2609C12.2854 53.3671 12.3109 53.5325 12.235 53.6586C12.1767 53.6663 12.1362 53.6694 12.106 53.6805C12.0758 53.6917 12.0558 53.7984 12.0584 53.832L12.06 53.8297L12.0756 54.1039C12.1231 54.1107 12.215 54.0501 12.2357 54.007L12.3975 53.6711C12.6115 53.2248 12.5936 52.9458 12.8889 52.8094C12.9837 52.7143 12.9999 52.4621 13.0646 52.3258C13.182 52.0781 13.2954 51.8374 13.4326 51.6078C13.5603 51.3955 13.6819 51.2046 13.7631 50.9664C13.8201 50.7998 13.9079 50.6814 14.0115 50.5398C14.16 50.3378 14.156 50.0396 14.2553 49.8117L14.6201 48.982C14.7176 48.7611 14.7622 48.5055 14.8881 48.307C15.2075 47.8028 15.4446 47.2879 15.6795 46.7414C15.7235 46.6396 15.8004 46.526 15.86 46.432C16.2321 45.8406 16.1711 45.6647 16.5631 45.1648C16.791 44.8739 16.9842 44.5608 17.0498 44.2C16.9764 44.1275 16.8645 44.1349 16.767 44.1461ZM25.7193 42.4547C25.5407 42.372 25.3093 42.3564 25.2178 42.5703C25.185 42.6463 25.1247 42.7439 25.0678 42.775C25.0186 42.8018 24.8709 42.7382 24.8053 42.7469C24.567 42.778 24.2576 42.8411 23.9865 42.7789C23.6665 42.705 23.8506 43.2348 23.8834 43.7492C23.8887 43.8376 23.985 45.0096 23.9764 44.9656C24.1041 45.595 24.2383 46.2161 24.2771 46.8758L24.2982 47.2414L24.4201 48.4203L24.481 49.1859L24.5123 49.65C24.5313 49.9271 24.5732 50.1553 24.7631 50.3789C24.7717 50.4911 24.7796 50.6557 24.7787 50.7766L24.7717 51.5844C24.7682 51.9985 24.7595 52.5057 25.1092 52.8227C25.142 52.8086 25.2114 52.7111 25.2123 52.6594C25.2123 52.2113 25.2512 51.4778 25.3514 51.0867C25.31 51.0004 25.345 50.9013 25.3545 50.8047L25.4076 50.2344L25.574 48.1648C25.6293 47.4776 25.6661 47.3908 25.6834 46.625L25.7076 45.5492L25.7701 45.2281L25.8412 43.9469L25.8756 43.5031C25.8972 43.2225 25.8398 43.0478 25.8467 42.6523C25.8468 42.6065 25.8706 42.5247 25.8404 42.5109L25.7193 42.4547ZM38.7482 44.3234C39.1808 44.1792 39.6508 44.1804 40.1006 44.2797L40.8967 44.4555C41.1339 44.5083 41.2978 44.7657 41.4842 44.8891C41.7414 45.06 41.843 45.2565 41.956 45.5328C42.1313 45.9593 42.2003 46.2127 42.0717 46.7281C41.9388 47.2579 42.1198 46.9094 42.0412 47.5016C41.9765 47.9856 42.0249 48.2067 41.8568 48.5156C41.7515 48.7073 41.8247 48.9971 41.7185 49.1922L41.1881 50.1703C40.9041 50.6951 40.9046 50.6047 40.3279 51.0812C40.1596 51.2202 39.9135 51.3856 39.7193 51.4469L38.924 51.6969C38.9042 51.7467 38.8842 51.765 38.867 51.7547C38.8117 51.7106 38.6988 51.6023 38.6435 51.6273L38.642 51.625C38.5669 51.6587 38.4403 51.7399 38.3514 51.7969C38.2789 51.7727 37.6667 51.3805 37.7412 51.2695C37.6092 51.2126 37.4257 51.1851 37.2506 51.1773L37.2389 51.068C37.0206 51.0782 36.9945 50.8981 36.9264 50.7453C36.4162 50.4293 36.8174 50.4648 36.5154 50.243L36.5514 50.1734C36.5617 50.1536 36.5084 50.1348 36.4756 50.1141L36.4076 50.0711C36.3895 50.0599 36.4554 50.0211 36.485 49.9969C36.4296 49.9804 36.3221 49.9401 36.3178 49.8875L36.299 49.6539C36.2878 49.5149 36.2368 49.3496 36.242 49.2141C36.2463 49.1185 36.2351 49.053 36.2334 48.9867C36.2222 48.6388 36.2626 48.3079 36.3006 47.9695L36.3459 47.5633C36.3554 47.4813 36.3794 47.3677 36.3967 47.2789L36.481 46.857C36.5295 46.6142 36.7179 45.9867 36.8154 45.7398C37.1169 44.9777 38.0145 44.5686 38.7482 44.3234ZM39.1365 46.2914C39.1141 46.3277 39.0813 46.3706 39.0537 46.3836L38.756 46.5242C38.6197 46.589 38.6011 46.6813 38.5303 46.8039C38.2748 47.2474 38.0216 47.4719 38.1396 47.8516C38.0602 48.0968 38.0293 48.4806 38.0967 48.7586C38.1218 48.8621 38.2001 48.9435 38.2545 49.0539C38.3374 49.2215 38.4893 49.5994 38.781 49.482L39.5975 49.1539H39.5967C39.6778 49.1211 39.8235 48.9953 39.8701 48.9297C39.9927 48.7562 39.9848 48.5048 40.0029 48.2898L40.0514 47.7156C40.2888 47.3513 40.1045 47.2014 39.9154 46.7102C39.9062 46.6878 39.8331 46.668 39.8107 46.6508L39.5787 46.4734C39.5541 46.5099 39.5909 46.4532 39.6193 46.4102L39.1365 46.2914ZM12.2873 48.4109C12.2528 48.3574 12.1258 48.36 12.1232 48.4109C12.1344 48.4604 12.2865 48.4571 12.2873 48.4109ZM18.8912 29.5617C18.8558 29.5548 18.7743 29.5905 18.7467 29.6164C18.3067 30.0399 18.3132 29.7172 18.0475 30.1312L17.7928 30.2641C17.7892 30.4692 17.6451 30.4622 17.5217 30.532C16.9527 30.8541 15.895 31.9267 15.4115 32.4344C14.2538 33.6482 13.8235 33.4122 13.5826 33.7023C12.9247 34.4967 12.8765 35.0695 12.867 36.1211L12.8389 39.268C12.8345 39.7178 12.8725 40.1315 12.7404 40.5805C12.68 40.786 12.7021 40.9976 12.7107 41.2117C12.7254 41.5914 12.8735 41.5098 12.8217 41.5875L12.7318 41.7234C13.1618 41.9763 14.258 41.8945 14.7631 41.8039L16.1482 41.5547C16.32 41.5236 16.5262 41.5648 16.7006 41.5234L17.5435 41.3195L17.9115 41.2328C18.4657 41.1025 18.9915 41.0249 19.5646 40.9687C19.9747 40.9282 20.3701 40.8068 20.7732 40.7352L21.456 40.6133L22.974 40.2789C23.3884 40.1874 23.7933 40.1804 24.2068 40.132L25.3123 40.0039C26.0167 39.9219 25.5982 39.6314 26.1904 39.6711C26.446 39.6884 26.8303 39.7033 27.0357 39.7016C27.073 39.701 27.1616 39.5706 27.1779 39.6008L27.2568 39.7469C27.2904 39.8098 27.3607 39.9137 27.4193 39.9219C27.4703 39.9288 27.5858 39.8412 27.61 39.7937C27.628 39.628 27.4815 39.4467 27.3693 39.325L27.2459 39.1906L26.906 38.8164C26.6911 38.5798 26.3747 38.3112 26.2443 38.1445L25.9842 37.8086C25.8486 37.6351 25.4826 37.2071 25.3029 37.168C25.3063 37.037 25.236 36.9362 25.1326 36.8422L24.8209 36.5594C24.7492 36.4938 24.658 36.4203 24.5959 36.3383L24.0998 35.6758C24.0385 35.5929 23.9395 35.5251 23.8834 35.4414C23.7651 35.2687 23.6443 35.1322 23.4803 34.9992C23.3499 34.8939 23.2558 34.7418 23.135 34.6141L22.9068 34.3734C22.7264 34.1826 22.5832 33.9829 22.3967 33.793C22.2206 33.6134 22.0779 33.3889 21.8889 33.2266C21.7293 33.0894 21.6368 32.9542 21.5084 32.793L21.0818 32.2594L20.8396 31.8945C20.6791 31.6529 20.489 31.4477 20.2818 31.2414L19.8428 30.8023C19.4335 30.394 19.5586 30.1857 19.2521 29.9578C18.8499 29.66 19.0533 29.5954 18.8912 29.5617ZM48.931 38.2289C48.7602 38.2462 48.5967 38.29 48.4232 38.2469C48.2498 38.2038 48.0735 38.2162 47.9303 38.2922C47.7697 38.6885 47.9037 39.0318 47.7639 39.2555C47.6475 39.4418 47.6404 39.6264 47.574 39.8352C47.5421 39.937 47.448 40.0967 47.3935 40.2133L47.1451 40.7469L46.8303 41.4344L47.3131 41.4977C47.4391 41.5141 47.5972 41.512 47.7396 41.5008H47.742L48.0584 41.4758L48.4881 41.4625C48.5346 41.4599 48.6278 41.3775 48.6685 41.3961L48.8225 41.4672C49.3103 41.0113 49.0685 40.6547 49.4217 40.5148L49.3045 40.3195L49.392 39.6477L49.4498 39.1203C49.4662 38.9709 49.3667 38.7572 49.5256 38.6406C49.5618 38.6148 49.6408 38.6 49.6592 38.5656C49.6738 38.5381 49.6645 38.4395 49.649 38.4125L49.5115 38.1687L48.931 38.2289ZM28.6365 31.6695C28.6158 31.8541 28.638 32.0155 28.6725 32.2078C28.6906 32.3097 28.4902 32.3367 28.4271 32.3859C28.2036 32.5586 27.9736 32.7412 27.731 32.8914C27.2227 33.2056 26.7261 33.6473 26.4404 34.1625L26.5592 34.4602C26.5742 34.4965 26.6423 34.5644 26.6639 34.5937C26.8529 34.8502 27.0686 35.0666 27.2818 35.3023L27.9506 36.0406L28.4467 36.6695C28.5148 36.7558 28.5968 36.8516 28.6701 36.9266L29.4021 37.6758C29.4961 37.7715 29.6028 37.8503 29.6693 37.9812C29.8437 38.3266 30.0496 38.6222 30.2896 38.9305C30.3388 38.9943 30.3879 39.2028 30.5068 39.1852C30.9782 39.1144 31.0995 38.7768 31.3576 38.8328C31.5562 38.876 31.7263 38.868 31.9162 38.7773L32.2334 38.6258C32.5519 38.6456 32.8153 38.6141 33.0803 38.4492C33.4911 38.194 33.7877 38.5766 34.2029 38.2055L34.0357 37.9648C33.9735 37.7458 33.8492 37.6139 33.6818 37.4664L33.0334 36.8945C32.9332 36.6226 32.733 36.4462 32.5646 36.2062L32.2732 35.7883C32.2017 35.6857 32.1021 35.6333 32.0287 35.5437L31.7685 35.2305L31.367 34.7523C31.2807 34.6497 31.1546 34.5574 31.0873 34.4383C30.9785 34.2466 30.7576 34.1557 30.6428 33.9891L30.2334 33.3953C30.1704 33.3038 30.1091 33.2382 30.0271 33.157C29.9106 33.0431 29.8175 32.8356 29.6975 32.7328C29.2089 32.511 29.0671 31.6457 28.6365 31.6695ZM13.2764 2.83281C13.2401 2.83818 13.2074 2.97637 13.2428 2.98672L13.381 3.02656C13.444 3.04475 13.5354 3.10548 13.5365 3.14687L13.2451 3.33594L12.9615 3.52344L12.9654 3.67891C12.9663 3.71344 12.8688 3.76094 12.8576 3.79375C12.7229 4.19348 12.8551 4.08592 12.8482 4.62812C12.8456 4.8525 12.8235 5.08129 12.8459 5.29531L12.9162 5.99766C12.9274 6.1099 12.919 6.23735 12.9146 6.35391L12.899 6.73047C12.8818 7.15351 12.9101 7.73385 12.9576 8.11797C12.9642 8.16976 13.1162 8.26075 13.0865 8.29531C13.0606 8.32466 12.9564 8.39137 12.9451 8.43281C12.9002 8.60022 12.9284 8.90042 12.9146 9.09297C12.8758 9.62568 12.8553 10.119 12.8795 10.65L12.9201 11.5367L12.9139 12.4266V13.9711L12.9115 15.7578L12.9381 18.8875C12.9441 19.6067 12.8365 20.3052 12.8943 21.0312C12.9202 21.3542 12.8889 21.6679 12.8967 21.9891L12.9357 23.6883C12.9625 24.8564 13.0319 25.991 12.9982 27.1539C12.9931 27.3188 13.0165 27.4874 12.9889 27.6453C12.9657 27.7765 13.0673 27.9257 13.0553 28.0172L12.981 28.5547L12.9443 29.1047L12.9014 29.6289C12.897 29.6833 12.859 29.8118 12.8779 29.8594L13.0092 30.182C13.0773 30.3502 13.1269 30.5012 12.9631 30.6711C12.7628 30.8791 12.6232 31.252 12.7318 31.543C13.0159 31.6292 13.3249 31.3749 13.4389 31.1125C13.4717 31.0365 13.5477 30.9095 13.6029 30.875L14.0068 30.8094C14.2338 30.7723 14.3685 30.1902 14.4342 30.118C14.5706 29.9669 14.7836 29.7507 14.9623 29.6203L15.524 29.2109L16.0912 28.7617C16.459 28.4708 16.9328 27.8619 17.2514 27.4742C17.3377 27.3689 17.4042 27.3074 17.5225 27.2289C17.7331 27.0891 17.9126 26.892 18.1154 26.7383C18.4314 26.4991 18.7565 26.2961 19.0146 25.9836L19.1248 25.7516C19.4468 25.9847 19.5864 25.6445 19.6537 25.9734C19.797 26.1487 20.0171 26.2655 20.2217 26.3734C20.4926 26.9289 20.6193 26.6792 20.71 26.9617C20.8144 27.2881 20.8503 27.4277 21.124 27.7117L21.4271 28.0258C21.5765 28.1811 21.7395 28.3223 21.8889 28.4828L22.8771 29.5477C23.0248 29.7074 23.1412 29.8927 23.2725 30.0766C23.3916 30.244 23.3307 30.344 23.6248 30.7219L24.0506 31.2687L24.4209 31.7555C25.0892 31.5828 24.7839 31.7572 25.3373 31.4516C25.5505 31.3342 25.7576 31.1788 25.9303 31.0148L26.5107 30.4641L27.1771 29.8383C27.6356 29.4074 28.1776 28.9234 28.649 28.6281C28.7017 28.5953 28.7925 28.4988 28.8279 28.5125C29.3071 28.699 29.3177 28.8729 29.7779 28.8703C30.0896 29.3347 30.4359 29.768 30.7709 30.2039C31.0523 30.5699 31.3282 30.8989 31.6553 31.2234C31.7648 31.3321 31.8797 31.4568 31.9764 31.575L32.1795 31.8227L32.674 32.4031L32.899 32.6758C33.1088 32.9313 33.2986 33.1733 33.492 33.4461L33.8404 33.9398C34.0071 34.1755 34.1518 34.4244 34.3529 34.6359L35.6623 36.0203C35.9662 36.3415 36.2288 36.6782 36.5076 37.0227C36.6872 37.2445 36.8585 37.4696 37.1529 37.5594L37.6154 37.3922L38.0818 37.3789C38.3244 37.372 38.5648 37.2462 38.81 37.2289C39.1845 37.2022 39.5418 37.1823 39.9154 37.1133C40.2228 37.0563 40.5234 37.0447 40.8334 37.0102L41.6857 36.9164L42.5217 36.8281C42.6294 36.8169 42.7199 36.7995 42.8225 36.7633C43.1143 36.6588 43.4142 36.606 43.7225 36.543L45.0365 36.275C45.2194 36.2379 45.3928 36.2265 45.574 36.1773L46.6764 35.8742C46.9258 35.8062 47.4282 35.9153 47.5779 35.825C47.5961 35.8138 47.5961 35.7587 47.5771 35.7492L47.4842 35.7047C47.3694 35.6512 47.251 35.5796 47.1396 35.5398C47.0085 35.4924 46.9357 35.44 46.8537 35.3312C46.6396 35.0463 46.289 35.5261 45.8935 35.4656C45.8392 35.5837 45.786 35.6813 45.7248 35.7633L45.6662 35.7008L45.6889 35.6266C45.726 35.5065 45.6407 35.7215 45.3178 35.6594C45.2166 35.6404 44.5301 35.7434 44.3709 35.7711L43.667 35.8922C43.5375 35.9146 43.3639 35.9396 43.2568 35.9422C43.2292 35.7497 43.1659 35.7176 43.0701 35.6062C42.8724 35.3753 42.5536 34.4398 42.5381 34.1844C42.5243 33.9616 42.852 33.8725 43.0014 33.8906C43.2863 33.926 43.4697 33.7764 43.7037 33.7125C43.9307 33.6513 44.2173 33.743 44.4279 33.6273L44.4935 33.5914C44.5027 33.5861 44.4698 33.5579 44.4592 33.5523L44.0764 33.3656L44.1685 33.2305C43.72 33.1338 43.7335 32.9123 43.6646 32.918L43.4795 32.9344C43.1671 32.962 42.8159 33.0962 42.506 33.1852L42.1365 33.1727C42.0994 33.1709 42.0057 33.1382 41.9764 33.1312C41.8607 33.1571 41.694 33.1432 41.5654 33.1242C41.1711 33.3641 41.4298 33.1239 40.6685 33.2922C39.9477 33.4519 40.0917 33.2734 39.4365 33.4219C39.2215 33.4702 39.022 33.4747 38.7717 33.4617C38.7579 33.347 38.7715 33.2279 38.7896 33.0898C38.8147 32.9042 38.7189 32.6941 38.7068 32.5102L38.6318 31.3648C38.6284 31.3165 38.6338 31.2064 38.6709 31.1883C38.8357 31.1101 39.0232 31.3254 39.1889 31.3125L39.6779 31.2727L40.1717 31.2539C40.6828 31.234 41.1384 31.3113 41.5045 31.2086C41.5356 31.1998 41.6276 31.1384 41.6193 31.1125L41.5865 31.0109C41.7626 30.884 41.2847 30.9336 41.2787 30.7609C41.2718 30.5667 41.2303 30.4376 41.024 30.3711C40.9178 30.3374 40.7322 30.2888 40.6053 30.2836L39.2756 30.225C38.926 30.2095 38.5868 30.2283 38.2303 30.2344L37.7029 30.243C37.5001 30.2464 37.28 30.3749 37.1021 30.1992C36.9356 30.0352 36.6815 30.0599 36.4623 30.0289L35.2912 29.8648C35.2567 29.5462 35.2566 29.1324 35.3162 28.8164C35.424 28.2467 35.2223 27.9453 35.3553 27.3867L35.781 27.6625C36.4353 27.8411 37.0871 27.7874 37.756 27.7312C38.4364 27.6734 39.2476 28.1647 40.1162 27.7312C40.0281 27.5974 40.0001 27.4522 39.9639 27.2812L39.8873 26.9242C39.7604 26.869 39.6152 26.811 39.5193 26.7031L39.1404 26.6219C38.9319 26.5771 38.2839 26.6065 38.306 26.6109L37.4287 26.4867C37.2873 26.4669 37.1882 26.4569 37.0623 26.4328L36.3396 26.2953L36.0271 26.2617C35.8382 26.241 35.6817 26.2017 35.4842 26.2094C35.1933 26.2206 34.8684 26.1591 34.5896 26.2375C34.4031 26.2902 34.2999 26.3153 34.167 26.1297C34.0444 25.9596 33.8613 25.7383 33.7975 25.5242C33.7269 25.2877 33.8473 25.0129 33.849 24.7773L33.856 23.5312C34.2661 23.4976 34.3363 23.8301 34.7256 23.8C35.0312 23.7767 35.2799 23.8515 35.5639 23.943C35.897 24.05 36.2658 23.9978 36.6162 24.0297L37.3529 24.0984C37.694 24.1304 38.8087 24.5936 39.5201 24.4805C39.5616 24.3165 39.6357 24.1138 39.6271 23.9352L39.61 23.5742L39.7928 23.5289L39.606 23.3211C39.3652 23.2952 39.0766 23.0581 39.0904 23.0555C38.9255 23.0848 38.9055 23.2328 38.8623 23.1758L38.7771 23.0641C38.6261 23.115 38.4358 23.1526 38.2709 23.1336L37.9357 23.0961C37.6983 23.0693 37.4877 23.0264 37.2451 23.0359C37.0906 23.042 36.4369 22.9623 36.2318 22.9234L35.6467 22.8109C35.4054 22.7652 34.6408 22.7609 34.356 22.7617C34.2128 22.7617 34.0567 22.7084 33.9014 22.7773C33.866 22.7929 33.755 22.8125 33.7443 22.7773L33.6998 22.6328L33.6154 22.3648C33.6957 22.1439 33.6286 21.9045 33.6631 21.6836L33.7935 20.8516C33.8825 20.2872 33.9964 20.332 34.2951 19.8383C34.504 19.9919 34.7198 20.0989 34.9701 20.1516L35.5404 20.2727C35.7959 20.327 36.0752 20.3214 36.3428 20.368L38.1865 20.6914C38.6846 20.7786 39.2817 21.0131 39.6529 20.8414C39.7557 20.8155 39.9761 20.8252 40.0857 20.8148C40.0667 20.593 40.1693 20.2861 40.2928 20.1445C40.2814 19.8416 39.9251 19.7631 39.692 19.7242L39.1248 19.6305C39.029 19.6149 38.7138 19.4199 38.1045 19.3508C37.7169 19.3068 37.299 19.2354 36.9209 19.1672C36.889 19.1612 36.8009 19.1043 36.7662 19.093L36.06 18.8687L35.6029 18.7172C35.5553 18.7017 35.4363 18.7259 35.381 18.7328C35.2802 18.5896 35.3173 18.4068 35.3475 18.2359C35.527 17.2233 35.683 17.3844 35.9342 16.4953C36.0956 16.4392 36.2499 16.5711 36.3389 16.7023C36.4408 16.8525 36.6833 16.8434 36.8404 16.8883C37.1132 16.9667 37.3885 16.9243 37.6639 16.9562L38.8889 17.0977L40.2795 17.5094C40.4538 17.5611 40.6505 17.5277 40.8084 17.6062C40.8446 17.6243 40.9392 17.6324 40.9654 17.6102C41.0621 17.523 41.0623 17.1821 41.0537 17.1078L41.006 16.7328L41.3131 16.6094C41.2363 16.4964 41.1522 16.4556 41.0185 16.4383L40.8568 16.2734C40.6876 16.2346 40.4464 16.2922 40.2764 16.2672L39.2412 16.1133C39.0643 16.0874 38.8983 16.0914 38.7162 16.0672L37.6701 15.9305C37.5648 15.9167 37.3831 16.0024 37.2881 15.9852L36.9131 15.9172C36.8148 15.7705 36.881 15.5465 36.8975 15.3695L36.9482 14.8086C36.9596 14.6879 37.0369 14.5747 37.124 14.5031L37.2037 13.6297C37.8521 13.7998 37.8082 13.8848 38.4998 13.9953C38.9132 14.0618 39.3093 14.0655 39.7279 14.075C40.1242 14.0836 40.4888 14.0846 40.8928 14.0492C41.1043 14.0311 41.3559 14.095 41.5303 13.918C41.2989 13.4949 41.5715 13.3932 41.1303 13.1859C40.9239 13.0893 40.7582 13.0801 40.5381 13.1164C40.4078 13.138 40.313 13.1367 40.1818 13.2281C40.1145 13.2756 39.9656 13.1625 39.8896 13.1539L38.9514 13.0477C38.7856 13.0287 38.5548 13.1501 38.4037 13.1242L38.0201 13.0594L37.9803 12.7344C37.7869 12.4089 37.6796 12.0833 37.7521 11.7086L37.8607 11.143C37.8676 11.105 37.9629 11.0699 37.9896 11.0906C38.3453 11.3666 38.846 11.3032 39.3139 11.2937C39.6151 11.2877 39.8775 11.2601 40.1693 11.2117C40.4153 11.1712 40.9547 11.0966 41.1646 11.1992C41.2285 11.1518 41.1635 11.0024 41.1092 10.9289C40.7284 10.4169 40.29 10.3895 39.6623 10.4344C39.582 10.4403 39.4473 10.4263 39.3826 10.4461C39.2895 10.4745 39.2179 10.4889 39.1334 10.4906L38.5435 10.5047C38.5823 9.77714 38.3921 10.0859 38.4154 9.25625C38.4214 9.05254 38.3957 8.82623 38.3896 8.63203L38.6873 8.65781C38.7494 8.66262 38.8188 8.54025 38.874 8.48594C38.912 8.44882 39.0565 8.48265 39.1092 8.46797L39.5045 8.35625C39.5787 8.40287 39.663 8.4495 39.7131 8.42187C39.9054 8.31381 39.7784 7.8556 39.5678 7.63203L39.1201 7.15937C38.9656 6.99619 38.896 6.75495 38.7959 6.55469C38.745 6.45278 38.6749 6.26548 38.7975 6.15156C39.1316 5.84164 39.5462 5.65119 39.9873 5.45781L40.3318 5.85234L40.3178 5.84531C40.5422 6.10254 40.7453 6.34065 40.9826 6.5625C41.2753 6.83533 40.8571 6.85979 41.2732 7.32344C41.4981 7.57445 41.2568 7.78171 41.5014 7.71641L41.7693 7.64531C42.0922 7.55983 42.36 7.38032 42.6389 7.20937C43.2007 6.86499 42.9058 6.68036 43.274 6.55C43.3041 6.5397 43.3836 6.53002 43.3904 6.55625L43.4162 6.66016C43.4482 6.78965 43.5092 6.89187 43.6154 6.97734C44.0744 7.34509 43.6906 7.70218 44.2146 7.87656C44.2828 8.06213 44.4198 8.35995 44.2232 8.46797C44.111 8.52927 43.9194 8.58068 43.8287 8.66875C43.6837 8.80938 43.5103 8.8922 43.367 9.01641C43.1927 9.16658 43.1215 9.44875 42.9084 9.60937C42.7892 9.69917 42.7167 9.97929 42.7857 10.0984C42.9049 10.3028 43.1336 10.246 43.2881 10.1484C43.4054 10.0743 43.6235 10.1593 43.7435 10.1164C44.1286 9.97567 44.4605 9.77276 44.824 9.59922C45.0735 9.48007 45.3171 9.38128 45.5537 9.24141C45.6297 9.19618 45.7547 8.97282 45.8693 9.13125C46.4046 9.87118 46.2521 9.75583 46.6381 10.4828C46.7166 10.6311 46.8562 10.7863 46.8693 10.9492C46.8797 11.0761 46.7061 11.1447 46.6154 11.1844C46.4057 11.2751 46.2294 11.4737 46.0248 11.5367C45.9015 11.5747 45.7894 11.6007 45.6764 11.643L45.174 11.8328C44.8347 11.9615 44.5085 12.1471 44.2771 12.4242C44.018 12.3536 43.4521 12.4832 43.4771 12.8086C43.4875 12.9449 43.5565 13.0441 43.6928 13.1062L43.749 13.3992L43.8631 13.5062C43.9318 13.572 43.6707 13.8229 43.7482 13.9766C43.9502 13.8229 44.0782 13.7649 44.281 13.6984L44.86 13.5102L45.549 13.2812L47.3592 12.6734C47.7352 12.5474 47.9267 12.3503 47.9881 12.5406C48.0493 12.7313 48.1376 12.9274 48.2256 13.1078C48.3974 13.4575 48.47 13.8299 48.5701 14.2141C48.6374 14.4712 48.9969 14.5283 49.0084 14.7922C49.0144 14.9345 48.8615 14.996 48.7545 15.0125C48.198 15.1005 47.7886 15.3549 47.5959 15.3578C47.3344 15.3613 47.2659 15.4766 47.0787 15.5836C46.8588 15.7086 43.9181 16.249 43.9154 16.2469L43.4678 16.5937C43.4307 16.6222 43.3551 16.6222 43.335 16.6453C43.3151 16.6686 43.3405 16.742 43.356 16.7937C43.3819 16.8792 43.3539 17.0035 43.3607 17.0734C43.3737 17.1986 43.4021 17.3001 43.3373 17.4227C43.314 17.4667 43.2814 17.5163 43.3021 17.5344C43.3703 17.5973 43.6734 17.5268 43.7842 17.5L44.231 17.3898C44.4261 17.3415 44.5609 17.2527 44.7732 17.2492C45.1349 17.2431 45.4863 17.1122 45.842 17.0906L46.5225 17.0492L46.6834 16.8758L47.7607 16.6203L48.7709 16.3359C48.8084 16.3257 48.9174 16.329 48.9295 16.3617L48.9803 16.4961C49.0675 16.7283 49.207 16.9571 49.2709 17.2023C49.3555 17.5269 49.4268 17.8076 49.6029 18.1055C49.6961 18.2627 49.7229 18.6968 49.4795 18.6727C49.1868 18.6433 48.753 18.6066 48.481 18.7422C48.3705 18.7965 48.1971 18.8003 48.0693 18.8383C47.509 19.0066 46.9847 19.1408 46.3959 19.2047L46.1357 19.3297C45.5168 19.3357 44.9493 19.4555 44.3623 19.6117C44.2103 19.6523 44.0622 19.6656 43.9232 19.7398C43.2777 20.085 43.4488 19.8335 43.1209 20.0656C42.728 20.3445 43.0002 20.2867 42.4623 20.6484C42.4399 20.7157 42.4105 20.7929 42.3795 20.8352L42.3162 20.9242C42.2817 20.9717 42.6901 21.2069 43.1865 20.8227C43.4403 20.7907 43.7397 20.7673 44.0029 20.7164L44.6553 20.5914C44.9687 20.531 45.2791 20.4719 45.5865 20.3898L46.0381 20.2695C46.1545 20.2384 46.2925 20.1686 46.4193 20.1453C46.7965 20.0771 47.1334 19.96 47.4951 19.8633L48.3607 19.6328C48.4867 19.599 48.6302 19.4245 48.7795 19.4789C48.9433 19.5387 48.9047 19.8916 48.9529 20.1539C49.1092 21.0035 49.2552 20.6508 49.01 21.25C48.9702 21.3467 48.9397 21.4626 48.9881 21.5516C49.0364 21.6407 49.0656 21.8764 48.9396 21.8945C48.3285 21.9817 47.7632 22.1092 47.1693 22.2594L46.4037 22.4523L46.1568 22.5242L45.8443 22.6062C45.727 22.6365 45.6225 22.6918 45.4982 22.7289L44.9607 22.8898C44.8338 22.9278 44.7358 22.968 44.6123 22.9922L43.9803 23.1172C43.8862 23.1362 43.7636 23.1657 43.6756 23.1977L43.3178 23.3305C43.2021 23.3736 43.1051 23.3703 43.0334 23.2875C42.9617 23.2046 42.8281 23.3496 42.8021 23.4602C42.7866 23.5249 42.5826 23.4983 42.5248 23.5406L42.0068 23.9258C41.9696 23.9533 41.8105 23.9422 41.8217 23.9836C41.8312 24.0191 41.8569 24.1026 41.8725 24.1328L41.9943 24.3742C42.9104 24.6427 42.6693 24.1892 43.0389 24.2703C43.2493 24.3159 43.3951 24.217 43.5771 24.1445C43.6799 24.1031 43.8571 24.0965 43.9607 24.043C44.2923 23.8712 44.6256 23.772 44.9865 23.6883C45.6978 23.5225 45.8032 23.5493 46.524 23.318L47.0115 23.1617L47.4615 23.0141C47.6463 22.9528 47.7944 22.8926 48.0068 22.7977C48.1061 22.9168 48.2826 23.1157 48.3646 23.2547L48.9279 24.7359L48.7467 25.1203C48.6422 25.3413 48.5348 25.3785 48.2982 25.3828C48.1236 25.3863 47.1396 25.5136 47.0248 25.6172C46.9591 25.6482 46.7963 25.6536 46.7264 25.682L46.2646 25.8672C45.7435 26.0768 45.798 25.959 45.6029 26.1359C45.5054 26.224 45.2867 26.2243 45.1451 26.2648C44.8232 26.358 44.521 26.4301 44.1904 26.45L43.2857 26.5039C42.9119 26.5264 42.6131 26.6361 42.3834 26.9383C42.3213 27.0195 42.2839 27.246 42.3295 27.3367C42.3701 27.4179 42.4068 27.5068 42.4318 27.6C42.5458 27.6517 42.7365 27.6318 42.885 27.6094C43.1248 27.5732 43.3931 27.5943 43.6037 27.5211L44.0935 27.3492C44.4009 27.2413 44.7284 27.1726 45.0521 27.1156C45.2454 27.082 45.3654 27.0368 45.5303 26.9289C45.6822 26.8297 45.9146 26.8005 46.0881 26.7211C46.4023 26.5778 46.7296 26.4727 47.0568 26.3734C47.1293 26.351 47.2559 26.2349 47.3232 26.257C47.5043 26.3191 47.4141 26.5222 47.4389 26.6328C47.5839 27.2759 47.9814 27.5646 48.1412 28.2016C48.1732 28.3285 48.1851 28.4359 48.0935 28.5187C48.021 28.5843 47.9069 28.5875 47.799 28.5297C47.7129 28.4845 47.6354 28.5979 47.5725 28.6094L47.1842 28.6797C47.0591 28.7022 46.914 28.7476 46.8459 28.7977L46.867 28.8805C46.305 28.9124 46.5059 29.0091 45.9967 29.1352C45.7386 29.4873 45.6588 29.2336 45.4396 29.3836C45.1452 29.5856 44.8031 29.6679 44.4396 29.6852C44.2084 29.6956 43.9607 29.842 43.7295 29.8766L43.6084 29.8953C43.529 29.9074 43.7607 30.3981 44.0818 30.393C44.1956 30.3913 44.3463 30.4113 44.4412 30.3898L45.1295 30.2367C45.2374 30.2126 45.4628 30.287 45.5475 30.2172L45.8225 29.993C45.8294 29.9351 45.8431 29.8486 45.8803 29.8391C46.1673 29.7641 45.8525 29.9055 46.1873 29.8055L47.0826 29.5367C47.1396 29.5194 47.2313 29.5903 47.2451 29.643C47.3133 29.9054 47.4661 30.0747 47.6318 30.2672C47.8071 30.4718 47.9633 30.6265 48.2154 30.7344C48.2913 30.7663 48.3483 30.9274 48.3303 31C48.3139 31.0673 48.1948 31.1792 48.124 31.1836C47.8901 31.1965 47.7605 31.2894 47.5732 31.393C47.4498 31.462 47.3515 31.5134 47.2514 31.6023C47.0001 31.8268 46.6455 31.9095 46.3623 32.0805C46.2967 32.1202 46.1998 32.1994 46.1248 32.2555C46.0569 32.3066 46.1012 32.5202 46.1529 32.5945C46.3299 32.6645 46.5753 32.6567 46.7428 32.5781L47.8357 32.0656C48.0601 31.9603 48.2404 31.8127 48.2975 31.5461C48.3933 31.515 48.5916 31.5099 48.6693 31.5625C48.8533 31.9475 49.3059 32.3144 49.6693 32.5328C49.7263 32.7159 49.8049 33.0865 49.7185 33.2289C49.6752 33.2996 49.5438 33.3445 49.4412 33.3945L49.1139 33.5523C49.0621 33.5777 49.0077 33.6917 48.9646 33.7719L49.4748 33.8953C49.5991 34.1733 49.8484 34.3604 50.167 34.3656C50.2282 34.4225 50.2831 34.4807 50.3451 34.5195L50.8654 34.8398C50.8846 34.8509 51.0351 34.8453 50.9998 34.743C50.9575 34.6203 51.0024 34.3895 51.0982 34.2695C51.2276 34.1073 51.2419 33.9772 51.2514 33.7719C51.2669 33.4386 51.2753 33.1121 51.2615 32.7719L51.2357 32.1406L51.2154 31.4836L51.2232 30.9187L51.2717 29.3758C51.2872 28.8631 51.2745 28.3712 51.2779 27.8594L51.2818 27.0219L51.3209 25.093L51.3443 23.7633C51.3521 23.3126 51.3307 22.9004 51.2771 22.4523C51.2237 22.0044 51.2907 21.5581 51.3123 21.1102L51.3779 19.7594C51.4107 19.0895 51.4558 18.4325 51.4498 17.7617C51.4463 17.3767 51.4105 17.0045 51.4295 16.6117L51.4982 15.2008C51.5164 14.8192 51.5361 14.4599 51.524 14.0766L51.4834 12.75L51.5701 10.9117C51.6202 9.83593 51.5708 8.78039 51.6295 7.70547C51.6433 7.44411 51.6406 7.19565 51.6389 6.93516L51.6326 6.00078L51.6779 5.64297C51.6934 5.51951 51.6975 5.33571 51.6553 5.23906C51.5293 4.95513 51.6897 4.70398 51.6467 4.42266C51.6087 4.1766 51.4402 3.80844 51.5662 3.55547C51.6715 3.34395 51.2401 3.63798 50.7014 3.45156C50.4432 3.36177 50.1847 3.50534 49.9162 3.48203L49.2928 3.42891C49.2281 3.42349 49.141 3.26134 49.0514 3.36172C49.0195 3.39704 48.9007 3.44557 48.8701 3.41406L48.7607 3.3C48.583 3.42841 48.382 3.44587 48.1896 3.33984L47.8896 3.38359C47.8517 3.38867 47.8 3.37674 47.7381 3.36641C47.537 3.33361 47.3151 3.34729 47.1037 3.33437C46.717 3.31107 46.3524 3.30713 45.9709 3.32266L45.4928 3.34219L45.0092 3.35625C44.7691 3.36316 44.4033 3.3463 44.1279 3.33594L42.4115 3.26875L41.4482 3.31719L41.1279 3.35312C41.0381 3.35571 40.8646 3.20358 40.7834 3.23984C40.6142 3.31488 40.4957 3.22245 40.3826 3.23281L39.8873 3.27734C39.7233 3.29202 39.5839 3.28541 39.431 3.34844C38.9903 3.53122 39.1151 3.28134 38.8185 3.28203H38.3896C38.0946 3.28371 37.8409 3.23271 37.5467 3.26719C37.2523 3.30172 37.214 3.27146 37.056 3.25937C36.1626 3.19377 36.4024 3.31245 36.0521 3.3125C35.4642 3.3125 35.3276 3.20359 34.9123 3.23984L34.5178 3.27422C34.2734 3.2958 33.698 3.24145 33.6592 3.24922C33.5566 3.26989 33.4925 3.27896 33.4037 3.28672L32.7521 3.34141C32.4992 3.36213 32.259 3.34634 32.0225 3.34375C31.8748 3.34203 31.6564 3.40102 31.5381 3.36562C31.3982 3.32332 31.3316 3.3222 31.2029 3.31875L30.1068 3.28984C29.9851 3.28639 29.8792 3.30427 29.7506 3.29219C29.5505 3.27241 29.3323 3.31552 29.1373 3.30781C28.7834 3.294 28.449 3.30333 28.0959 3.30937C27.938 3.31196 27.8117 3.28404 27.6443 3.32109C27.5001 3.35304 27.2822 3.24186 27.1389 3.26172C26.9637 3.28672 26.8074 3.28439 26.6451 3.24297C25.9176 3.33788 26.1685 3.22604 25.9193 3.21562C25.1725 3.18454 25.7784 3.10412 24.5904 3.14297L24.1732 3.15625C23.9203 3.16485 23.6291 3.04336 23.3779 3.14609C22.962 3.31606 23.2976 3.0985 22.6553 3.17187C22.5121 3.18822 22.3413 3.16019 22.1826 3.16016C22.0859 3.16016 21.9 3.3099 21.8162 3.23047C21.7299 3.1485 21.6216 3.05976 21.5068 3.12187C21.2479 3.26248 21.0034 3.22044 20.7264 3.22734C20.4492 3.23423 20.0053 3.21725 19.7576 3.16719C19.7135 3.15867 19.6079 3.17207 19.5639 3.16953L18.6482 3.11562C18.5136 3.10778 18.3339 3.04355 18.2131 3.05391C18.0025 3.07201 17.8462 3.06864 17.6451 3.02031C17.5009 2.98581 17.2969 3.03688 17.1381 3.03516L16.1107 3.025L15.5334 3.00859C15.2701 3.00082 15.005 3.02767 14.7451 3.00781C14.5319 2.99141 14.374 3.02293 14.21 3.16797C14.0934 3.1956 13.8798 3.19613 13.7365 3.1875C13.6875 3.01754 13.9111 2.95952 13.8576 2.925C13.7039 2.82399 13.4413 2.80864 13.2764 2.83281ZM21.8771 5.13828C22.2457 5.15809 22.6056 5.09911 22.9732 5.15L24.2256 5.19609C24.5959 5.20988 24.943 5.17773 25.3107 5.21484C26.0168 5.28561 26.1723 5.20106 26.7178 5.48672C26.8913 5.57737 27.14 5.61153 27.3006 5.73672C27.8453 6.15965 27.6761 5.73678 28.5014 6.30391C28.9511 6.61297 29.5464 6.76017 30.0014 7.05625C30.2413 7.2125 30.4816 7.35059 30.706 7.51719L31.2154 7.89609C31.344 7.99189 31.4867 8.10497 31.5264 8.26719C31.5661 8.42931 31.6837 8.49291 31.7881 8.60937C32.0281 8.87874 32.2436 9.1623 32.4646 9.46016C32.5492 9.57319 32.5202 9.82152 32.5779 9.94766C32.7437 10.3085 32.8881 10.6454 32.9951 11.0234L33.2889 12.0562C33.3657 12.3256 33.4358 12.5891 33.4592 12.8687C33.5429 13.8988 33.7129 15.4757 33.4029 16.4617C33.1776 17.1773 32.9842 17.7327 32.606 18.3586L32.1342 19.1414L31.6451 19.9398C31.5337 20.1212 31.3387 20.276 31.1928 20.4461C30.3959 21.3742 30.4138 21.3575 29.2889 21.8781L28.9451 22.0375L28.3678 22.2781L27.6795 22.5633C27.613 22.5909 27.5061 22.6157 27.4139 22.6398L27.4131 22.6367L26.91 22.7648C26.7658 22.802 26.6097 22.8425 26.4732 22.8883C26.3491 22.9306 26.219 23.0309 26.0725 23.0414C24.7765 23.1312 25.5721 23.304 23.9256 23.1961L22.9889 23.1344L22.5201 23.0547C22.4131 23.0366 22.3122 23.0314 22.2139 23.0547C21.6915 22.7352 21.6292 22.8762 20.9256 22.5672L19.8014 22.0734L19.4631 21.8531C19.1704 21.6632 18.9248 21.47 18.6459 21.268L18.1092 20.8789C17.8622 20.7002 17.6779 20.4536 17.456 20.2437C17.2645 20.0625 17.0866 19.8975 16.9373 19.6766C16.8257 19.5114 16.2441 18.7371 16.2334 18.7125L15.8146 17.6602C15.7084 17.3925 15.4102 16.5424 15.3662 16.2859C15.3179 16.0011 15.2898 15.7336 15.2139 15.4617L15.0014 13.3633C14.9565 12.9179 14.9989 12.4863 15.0412 12.0383C15.1232 11.1749 15.5147 10.4023 15.9334 9.64687C16.2045 9.15906 16.512 8.74198 16.8435 8.30078C17.1095 7.94681 17.3407 7.58564 17.6826 7.29297L18.5959 6.51172C18.709 6.41502 18.8828 6.33918 19.0123 6.24766C19.273 6.06294 19.5337 5.91191 19.8107 5.76172L20.41 5.43594C20.6551 5.30298 21.1964 5.10105 21.4451 5.11484L21.8771 5.13828ZM23.7248 7.66484C23.5608 7.58887 23.4257 7.60973 23.2928 7.67187C23.1598 7.73404 22.9396 7.74565 22.8412 7.82422C22.6911 7.94501 22.6303 7.96104 22.4326 7.90234C21.8508 8.22433 21.9199 8.0884 21.331 8.35C21.079 8.46134 20.8363 8.54621 20.6326 8.76719L20.3373 8.81797C20.3113 8.98358 20.1274 8.96792 20.0428 9.05078C19.4557 9.62838 18.942 10.2743 18.531 10.9961C18.3454 11.3224 18.2041 11.6713 18.0764 12.0227C17.9028 12.4975 17.8537 13.0069 17.8045 13.5094C17.7449 14.1258 17.851 14.6934 17.9779 15.2805C18.0003 15.385 17.9148 15.5923 17.9545 15.7227C18.1107 16.2379 18.3285 16.6797 18.5865 17.1406C18.7557 17.4436 18.8685 17.7792 19.0912 18.0391L19.7146 18.7641C19.7983 18.8616 19.9746 18.9523 20.0834 19.0352L20.5318 19.3805C21.586 20.1929 21.9747 20.2273 23.2318 20.5805C23.4053 20.6288 23.5957 20.7221 23.7467 20.5445L23.6451 20.4008H23.6443C23.7976 20.0099 23.4489 19.7254 23.2193 19.507C23.0026 19.3015 22.8003 19.0643 22.6225 18.8234C21.8855 17.825 22.2536 18.4179 21.8014 17.3555C21.677 17.0619 21.6631 16.7315 21.5889 16.425C21.4533 15.8682 21.4458 15.9925 21.3482 15.4141L21.2264 14.693C21.1729 14.3732 21.1852 13.4265 21.2568 13.1141L21.5115 12.0023C21.6825 11.2546 22.0268 10.0816 22.3834 9.40469C22.5794 9.0326 22.9978 8.71649 23.0842 8.52656C23.3517 7.93482 23.5634 8.37872 23.7248 7.66484ZM27.9037 8.6C27.5696 8.49294 27.3802 8.65495 27.1678 8.84922C27.0977 8.91301 26.9243 8.9285 26.8803 9.04844C26.8336 9.17614 26.7102 9.2125 26.5756 9.22891L26.5654 9.46719C26.057 9.37137 25.4474 10.0212 25.1451 10.3727C24.5528 11.0608 24.3479 11.4429 24.1295 12.3141L23.992 12.8617C23.9152 13.1682 23.9541 13.4947 23.9576 13.8055C23.9645 14.3753 24.0037 14.9195 24.1514 15.4867C24.3629 16.2991 24.7292 17.0634 25.2006 17.7602C25.3784 18.0226 25.6094 18.2394 25.8123 18.482C26.382 19.1656 26.5814 18.9838 26.7748 19.2367L26.9662 19.4875L27.5357 19.382V19.3844C27.6773 19.3584 27.8213 19.1638 27.9326 19.0758C28.1597 18.8979 28.331 18.7008 28.5287 18.4953L29.0982 17.9031L29.3459 17.6195C29.5479 17.3882 29.6787 17.1318 29.8185 16.8547L30.2232 16.0531C30.4011 15.7009 30.5434 15.3036 30.5943 14.9047C30.6452 14.5085 30.5947 14.1158 30.599 13.7187C30.6033 13.3891 30.5457 13.0815 30.4982 12.7578C30.4482 12.4159 30.4087 12.0867 30.2826 11.7664L29.9404 10.8961C29.8627 10.6984 29.734 10.5161 29.6037 10.3461C29.3991 10.0802 29.2218 9.83329 29.031 9.54844C28.9836 9.4785 28.8639 9.37121 28.7975 9.3125C28.3396 9.25361 28.5939 8.82186 27.9037 8.6ZM53.0857 14.3836L53.2154 14.3852C53.2369 14.385 53.2338 14.3359 53.2295 14.2773L53.0857 14.3836ZM41.4131 2.74219C41.4348 2.76128 41.5037 2.68767 41.5154 2.67422H41.5162L41.2943 2.63359L41.4131 2.74219ZM27.8623 1.72266C27.8449 1.72925 27.8685 1.78036 27.8771 1.79844C27.8858 1.81657 27.9311 1.79071 27.9389 1.77344C27.9466 1.7561 27.9601 1.69901 27.9412 1.70234C27.9248 1.7058 27.8744 1.71834 27.8623 1.72266ZM34.1162 0.889062H34.317V0.809375H34.1162V0.889062ZM38.2568 0.828906L38.3568 0.889062L38.4209 0.782812L38.3209 0.722656L38.2568 0.828906Z" fill="black"/>
</g>
<defs>
<clipPath id="clip0_1_128">
<rect width="64" height="64" fill="white"/>
</clipPath>
</defs>
</svg>
