<svg width="64" height="64" viewBox="0 0 64 64" fill="none" xmlns="http://www.w3.org/2000/svg">
<path d="M33.4007 30.251V37.2108C33.4007 40.3527 35.9477 42.8997 39.0896 42.8997H46.05V45.8872H39.0896C35.9478 45.8872 33.4008 48.4342 33.4007 51.576V58.5365H30.4132V51.576C30.4131 48.4344 27.866 45.8873 24.7243 45.8872H17.7639V42.8997H24.7243C27.866 42.8995 30.4132 40.3525 30.4132 37.2108V30.2504L33.4007 30.251ZM19.65 15.2004L17.9292 21.9448C17.1524 24.9891 18.9905 28.0867 22.0347 28.8635L28.7792 30.5844L28.0403 33.4795L21.2965 31.7587C18.2522 30.9819 15.1539 32.8199 14.3771 35.8642L12.6563 42.6087L9.76181 41.8698L11.4826 35.1254C12.2593 32.0811 10.4213 28.9835 7.37709 28.2066L0.632645 26.4858L1.37153 23.5913L8.11528 25.3122C11.1596 26.089 14.2572 24.2503 15.034 21.2059L16.7549 14.4629L19.65 15.2004ZM48.9653 21.2059C49.7421 24.2502 52.8397 26.0889 55.884 25.3122L62.6285 23.5913L63.3674 26.4858L56.6229 28.2066C53.5787 28.9834 51.74 32.0811 52.5167 35.1254L54.2382 41.8698L51.3431 42.6087L49.6222 35.8642C48.8454 32.8199 45.7478 30.9819 42.7035 31.7587L35.959 33.4795L35.2208 30.5844L41.9646 28.8635C45.0089 28.0867 46.8476 24.9891 46.0708 21.9448L44.3493 15.2004L47.2445 14.4629L48.9653 21.2059ZM42.9639 7.57605L38.0417 12.4976C35.8202 14.7192 35.8202 18.3211 38.0417 20.5427L42.9639 25.4642L40.8514 27.5767L35.9292 22.6552C33.7075 20.4337 30.1056 20.4336 27.884 22.6552L22.9625 27.5767L20.85 25.4642L25.7715 20.5427C27.9931 18.3211 27.9931 14.7192 25.7715 12.4976L20.85 7.57605L22.9625 5.46355L27.884 10.3851C30.1056 12.6067 33.7075 12.6066 35.9292 10.3851L40.8514 5.46355L42.9639 7.57605Z" fill="#272727"/>
</svg>
