<svg width="64" height="64" viewBox="0 0 64 64" fill="none" xmlns="http://www.w3.org/2000/svg">
<path d="M24.2728 7.25019C24.2728 3.79832 27.0711 1.00003 30.5229 1.00003H57.2186C60.6705 1.00003 63.4688 3.79833 63.4688 7.2502V33.4355C63.4688 36.8874 60.6705 39.6857 57.2186 39.6857H30.5229C27.0711 39.6857 24.2728 36.8874 24.2728 33.4355V7.25019Z" fill="#A755F6"/>
<path d="M1 7.25019C1 3.79832 3.7983 1.00003 7.25017 1.00003H10.0608C13.5127 1.00003 16.311 3.79833 16.311 7.2502V33.4355C16.311 36.8874 13.5127 39.6857 10.0608 39.6857H7.25017C3.7983 39.6857 1 36.8874 1 33.4355V7.25019Z" fill="#3D82F4"/>
<path d="M1 53.8975C1 50.4457 3.7983 47.6474 7.25017 47.6474H33.6396C37.0915 47.6474 39.8898 50.4457 39.8898 53.8975V57.0143C39.8898 60.4662 37.0915 63.2645 33.6396 63.2645H7.25018C3.79831 63.2645 1 60.4662 1 57.0143V53.8975Z" fill="#EC479B"/>
<path d="M47.7495 53.8975C47.7495 50.4457 50.5478 47.6474 53.9997 47.6474H57.2186C60.6705 47.6474 63.4687 50.4457 63.4687 53.8975V57.0143C63.4687 60.4662 60.6705 63.2645 57.2186 63.2645H53.9997C50.5478 63.2645 47.7495 60.4662 47.7495 57.0143V53.8975Z" fill="#EE4345"/>
</svg>
