<svg width="64" height="64" viewBox="0 0 64 64" fill="none" xmlns="http://www.w3.org/2000/svg">
<path d="M32 8.75C19.164 8.75 8.75 19.164 8.75 32C8.75 44.836 19.164 55.25 32 55.25C34.1434 55.25 35.875 56.9816 35.875 59.125C35.875 61.2686 34.1434 63 32 63C14.8773 63 1 49.1227 1 32C1 14.8773 14.8773 1 32 1C49.1227 1 63 14.8773 63 32V35.875C63 42.293 57.793 47.5 51.375 47.5C47.8269 47.5 44.6422 45.9015 42.511 43.3949C39.75 45.9379 36.0566 47.5 32 47.5C23.4387 47.5 16.5 40.5613 16.5 32C16.5 23.4387 23.4387 16.5 32 16.5C35.3785 16.5 38.5027 17.5777 41.0457 19.4184C41.736 18.8129 42.632 18.4375 43.625 18.4375C45.7684 18.4375 47.5 20.1691 47.5 22.3125V35.875C47.5 38.0184 49.2316 39.75 51.375 39.75C53.5184 39.75 55.25 38.0184 55.25 35.875V32C55.25 19.164 44.836 8.75 32 8.75ZM39.75 32C39.75 27.7254 36.2746 24.25 32 24.25C27.7254 24.25 24.25 27.7254 24.25 32C24.25 36.2746 27.7254 39.75 32 39.75C36.2746 39.75 39.75 36.2746 39.75 32Z" fill="#255EB5"/>
</svg>
