<svg width="64" height="64" viewBox="0 0 64 64" fill="none" xmlns="http://www.w3.org/2000/svg">
<path d="M14.2442 0.963867L14.7499 0.962065C15.2121 0.960623 51.1072 0.930164 51.5588 0.932507C51.722 0.932957 51.8852 0.932507 52.0483 0.930975C53.1501 0.921422 53.8535 1.06038 54.7446 1.75896C55.2249 2.24685 55.5629 2.70762 55.8195 3.34303L55.9137 3.53723C56.0228 3.86111 56.0247 4.16263 56.0225 4.50012L56.0232 4.71505C56.0237 4.95359 56.023 5.19203 56.0223 5.43057C56.0235 6.07734 56.013 43.1982 56.0123 43.6605V44.1643C56.0124 44.3911 56.0121 44.618 56.0116 44.8449L56.0122 45.0459C56.0104 47.5696 54.4662 47.3198 54.4662 47.3198C54.4662 47.3198 54.5382 55.7658 54.5379 56.0668L54.5447 56.3337C54.5377 57.5481 54.2466 58.505 52.4863 58.5065L25.7791 58.5727C25.5946 58.5639 25.5946 58.5639 25.5038 58.6744C25.4938 58.9355 25.5561 61.6808 25.5561 61.6808C25.5465 62.144 25.5531 62.9894 24.5113 63C22.8066 63.0174 21.1565 60.7507 20.2707 60.7471C19.5918 60.7443 17.8008 63.0001 15.9265 62.9913C15.4985 62.9893 15.1922 62.6836 15.0376 62.3692C14.9528 62.0605 14.9636 61.7672 14.9759 61.4491L14.9786 61.1846C14.9822 60.9072 14.99 60.6301 14.9981 60.3528C15.0013 60.1643 15.0042 59.9757 15.0067 59.7872C15.0137 59.326 15.0246 58.8651 15.0376 58.4041L14.8658 58.4065C13.4329 58.4097 7.98683 58.5339 7.98737 52.2753L7.98656 52.0325C7.98584 51.7637 7.98565 51.495 7.98547 51.2261C7.98547 51.2261 7.93224 7.67537 7.93188 7.48693C7.91844 0.890603 13.5318 0.961794 14.2441 0.963957L14.2442 0.963867Z" fill="#210E03"/>
<path d="M15.4946 47.828C16.0832 47.8266 47.2276 47.8544 51.9398 47.8605L51.8272 48.1511L51.6794 48.5374L51.6054 48.7279C51.3654 49.3582 51.2306 49.987 51.1278 50.6541L51.0887 50.8924C50.8646 52.6469 51.1609 54.4764 51.9398 56.061V56.2413C48.1805 56.2461 26.4939 56.2634 26.4939 56.2634L26.256 56.2636C26.0248 56.2391 25.8799 56.1849 25.6842 56.061C25.5701 55.8331 25.5833 55.6761 25.5841 55.4208L25.5721 51.5095L25.5717 51.2523C25.4919 50.9727 25.3693 50.8244 25.1362 50.6507C24.7922 50.479 24.4337 50.5016 24.0565 50.5057C24.0565 50.5057 16.8604 50.5031 16.5751 50.5057L16.3202 50.5029C15.9258 50.5093 15.661 50.5291 15.3475 50.7816C15.0445 51.1028 15.0259 51.2477 15.0191 51.6785L15.0137 51.9846C15.0137 51.9846 14.9562 55.6462 14.9474 56.2413C14.7883 56.2429 14.6292 56.244 14.4702 56.2451L14.2018 56.2471C12.7709 56.2239 10.5582 55.4391 10.5147 52.0667C10.561 50.9055 11.0209 49.8962 11.7895 49.032C12.0162 48.8245 12.2506 48.6536 12.5113 48.4913L12.6685 48.3885C13.5842 47.8236 14.4598 47.8222 15.4946 47.828Z" fill="#F6E8C5"/>
<path d="M23.3384 60.0262C23.0462 59.846 21.6125 58.9015 21.3545 58.7478C20.8561 58.4526 20.4465 58.2263 19.8728 58.3675C19.3643 58.5542 18.828 58.9176 18.3788 59.2173C17.9939 59.4679 17.597 59.7 17.203 59.9361V52.8169H23.3384V60.0262ZM13.3219 3.73063C13.3203 4.09861 13.3333 45.4553 13.2331 45.7877C11.6431 46.0767 11.1579 46.5988 10.2556 47.4098V47.3197C10.2369 41.5325 10.1696 8.14692 10.1654 7.98158C10.0573 3.73966 12.4325 3.36832 13.3396 3.28929L13.3219 3.73063ZM50.3364 3.15103C53.4422 3.15004 53.6894 3.60517 53.678 6.36741C53.6649 9.58573 53.7161 34.341 53.7449 43.0277C53.7518 45.0956 53.3652 45.6221 51.4887 45.6977C50.6824 45.7302 21.1473 45.8109 15.5516 45.7416L15.5331 3.25857C17.5145 3.18594 48.4413 3.15157 50.3364 3.15103Z" fill="#CC7935"/>
<path d="M29.9248 4.69476C30.8218 4.69477 31.5489 5.40083 31.5489 6.2718C31.5489 6.33629 31.5447 6.39986 31.537 6.46233C32.4027 7.41819 33.037 8.63188 33.5401 9.78792C33.6894 10.1309 33.8146 10.4575 33.9901 10.7738C34.5923 10.398 37.7988 10.5099 38.1153 10.8595L38.1807 10.4479C38.4829 9.04123 39.2362 7.92085 40.3015 7.08592C40.301 7.06994 40.3008 7.05389 40.3008 7.03779C40.3008 6.14193 41.0683 5.41569 42.0151 5.41569C42.9618 5.41569 43.7293 6.14193 43.7293 7.03779C43.7293 7.93364 42.9618 8.65988 42.0151 8.65988C41.8174 8.65988 41.6275 8.62812 41.4508 8.56985C40.8877 8.99862 40.7577 9.09365 40.1033 10.6915C40.048 10.8267 39.9062 11.0117 40.0431 11.094C45.1301 14.151 45.7124 16.9707 45.7682 20.076L45.9645 20.0541C49.3504 19.1903 51.9898 19.8251 52.4777 22.7094C52.5578 23.7237 52.3695 24.602 51.9237 25.506C50.8379 27.5413 46.4797 30.5203 44.1957 29.951L44.2067 30.3423C43.9505 46.0612 29.3271 40.2719 29.3091 40.2648C29.3091 40.2648 27.319 41.542 26.9917 41.4083C26.6049 41.3361 27.4322 39.6021 27.5269 39.2773L27.3115 39.0357C24.4702 37.2377 23.9693 34.9197 23.8576 32.8038L23.6005 32.9106C17.0555 35.3729 18.0353 26.8788 21.5513 26.001L21.3219 25.7609C11.2829 15.4735 20.5037 10.6606 27.422 16.7844C27.422 16.7844 28.1477 12.7947 32.0348 11.2983C31.8975 10.9776 31.396 9.66696 31.2878 9.50842C30.8484 8.86467 30.4992 8.30458 30.2278 7.82129C30.1297 7.83928 30.0284 7.84883 29.9248 7.84883C29.0279 7.84883 28.3008 7.14277 28.3008 6.2718C28.3008 5.40083 29.0279 4.69476 29.9248 4.69476Z" fill="#210E03"/>
<path d="M27.0351 30.2549C31.953 36.0684 39.6793 34.3829 41.8893 33.6815C40.4533 43.2877 23.5883 38.2578 26.8979 30.0607L27.0351 30.2549ZM30.2526 25.3427C31.9491 27.1244 35.5947 28.8958 41.1546 27.118C41.7578 27.5657 42.0919 29.6971 41.8893 30.7191C31.6111 33.7855 28.2906 27.8037 28.2906 27.8037C28.2912 27.802 28.9551 25.9331 30.2526 25.3427ZM29.3624 17.939C29.9837 12.9105 37.3692 10.7942 41.2457 14.5194C41.6098 14.8329 44.1959 16.7169 43.579 20.8295C43.0442 22.8138 42.1238 23.8195 40.7078 24.6468C38.5669 25.7495 36.2257 25.8783 33.962 25.1032C32.8151 24.6313 31.7128 23.8895 30.8816 22.9288L30.6719 22.7094C29.6713 21.3038 29.1447 19.7002 29.3624 17.939Z" fill="#FEC402"/>
<path d="M22.0473 27.765C22.1689 27.7022 23.3242 26.9989 24.7737 27.2341C25.0383 27.277 25.1065 27.2496 25.4302 27.3177C25.036 27.8224 24.3875 29.1715 24.2467 29.4559C23.9631 30.0229 23.8598 31.217 23.2802 31.4185C19.4806 33.3184 20.2551 28.6908 22.0473 27.765ZM45.2874 22.7107C45.4885 22.4437 48.742 19.9077 50.8069 22.1813C52.0264 23.524 48.7628 26.434 48.7524 26.4433C46.1929 28.6319 43.9291 28.7153 43.9291 28.7153C43.7376 28.4639 42.6232 26.3302 42.6232 26.1107C42.7533 26.0056 42.8865 25.905 43.0229 25.8091C43.9692 25.058 44.95 24.1274 45.2874 22.7107ZM25.4117 24.9413C16.1166 20.3807 18.1211 13.69 23.8765 16.9841C24.9092 17.5788 26.4769 18.4447 27.1076 19.7469C27.1609 20.0146 27.1995 20.2719 27.2321 20.5424C27.4277 21.8552 28.0922 22.8984 28.8897 23.9163C28.6565 24.5529 28.0799 24.9605 27.5192 25.2655C26.4836 25.7203 25.4117 24.9413 25.4117 24.9413Z" fill="#BBDDCE"/>
<path d="M36.6935 22.4214C36.1914 21.7363 37.1875 21.1485 37.4735 21.7041C37.7164 22.176 38.2534 22.4599 38.7606 22.4398C39.307 22.4181 39.7609 22.152 40.0795 21.7228C40.3222 21.3958 41.1377 21.8847 40.8264 22.341C39.8869 23.718 37.5936 23.6498 36.6935 22.4214ZM36.4843 17.9797C37.0215 17.9797 37.457 18.5762 37.457 19.312C37.457 20.0478 37.0215 20.6443 36.4843 20.6443C35.9471 20.6443 35.5116 20.0478 35.5116 19.312C35.5116 18.5762 35.9471 17.9797 36.4843 17.9797ZM40.77 17.9797C41.2325 17.9797 41.6074 18.5358 41.6074 19.2219C41.6074 19.9079 41.2325 20.464 40.77 20.464C40.3075 20.464 39.9326 19.9079 39.9326 19.2219C39.9326 18.5358 40.3075 17.9797 40.77 17.9797Z" fill="#210E03"/>
</svg>
