<svg width="64" height="64" viewBox="0 0 64 64" fill="none" xmlns="http://www.w3.org/2000/svg">
<path d="M24.5976 1.15266C23.1827 0.524879 21.4746 1.18345 20.8468 2.5984L3.15269 42.4791L3.15232 42.4799C2.52454 43.8949 3.18262 45.6018 4.59635 46.2291L4.59676 46.2292L39.9996 61.9366L40 61.9368C41.4145 62.5644 43.1219 61.9076 43.7497 60.4925L43.7503 60.4913L60.1183 23.5996L60.1461 23.506C60.5162 22.2711 59.9952 20.9237 58.8905 20.259L58.8082 20.2098L57.6351 19.6893L58.0065 18.8524L58.03 18.7817C58.4466 17.5293 57.9314 16.1372 56.8057 15.4565L56.7222 15.4057L24.5976 1.15266Z" fill="#4A4A60"/>
<path d="M56.0074 16.7764C56.5241 17.0888 56.7583 17.7186 56.5667 18.2948L55.7718 20.0863C55.7263 20.1889 55.7232 20.3059 55.7636 20.4107C55.8039 20.5153 55.884 20.5997 55.9864 20.6452L58.0949 21.5807C58.602 21.8858 58.8387 22.4963 58.669 23.063L58.6076 23.2013L55.5253 21.8338C55.2812 21.7255 54.9721 21.8891 54.8343 22.1992C54.7102 22.5023 54.8041 22.824 55.0445 22.9175L58.1268 24.285L57.7078 25.2294L55.2887 24.1561C55.0445 24.0479 54.735 24.2122 54.5974 24.5225C54.4734 24.8255 54.5676 25.1464 54.8079 25.2398L57.227 26.3131L56.8076 27.2584L53.7253 25.8909C53.4811 25.7825 53.172 25.946 53.0343 26.2563C52.9103 26.5594 53.0041 26.8811 53.2445 26.9745L56.3268 28.3421L43.6153 56.9925C43.323 57.6494 42.5592 57.9431 41.9017 57.6521L6.49838 41.9445C5.84131 41.6524 5.54656 40.8889 5.8375 40.2314L18.549 11.581L21.6313 12.9485C21.8755 13.0565 22.1851 12.8923 22.3227 12.5822C22.4466 12.2793 22.3522 11.9585 22.1121 11.8649L19.0298 10.4973L19.4492 9.55199L21.8674 10.6249C22.1116 10.7332 22.4216 10.5701 22.5593 10.2598C22.6834 9.95674 22.5887 9.63464 22.3482 9.5412L19.9301 8.46831L20.3491 7.52389L23.4314 8.89144C23.6755 8.99937 23.9847 8.83592 24.1224 8.52601C24.2464 8.22307 24.1523 7.90148 23.9122 7.80777L20.8299 6.44022L22.2568 3.224C22.5488 2.56591 23.314 2.27105 23.9721 2.56303L56.0074 16.7764ZM20.9106 17.1928C19.9759 16.7783 18.882 17.1997 18.4673 18.1344L9.45601 38.4448C9.04156 39.3795 9.46308 40.4733 10.3976 40.8882L40.0674 54.052C41.0021 54.4667 42.0959 54.045 42.5108 53.1104L51.522 32.8C51.9368 31.8652 51.5153 30.7714 50.5805 30.3566L20.9106 17.1928ZM29.8488 8.93532C27.7345 7.99738 25.2598 8.95099 24.3216 11.0652C23.3835 13.1796 24.3372 15.6542 26.4515 16.5925L47.3074 25.8457C49.4218 26.7838 51.8964 25.8302 52.8346 23.7158C53.7725 21.6014 52.819 19.1267 50.7047 18.1886L29.8488 8.93532Z" fill="#C2C2CC"/>
<path d="M50.2471 31.1084C50.7666 31.3389 51.0009 31.9468 50.7705 32.4663L41.7593 52.7765C41.5288 53.296 40.9208 53.5302 40.4013 53.2998L10.7317 40.136C10.2122 39.9055 9.97793 39.2976 10.2084 38.7781L19.2196 18.4679C19.4501 17.9485 20.058 17.7142 20.5774 17.9447L50.2471 31.1084ZM36.104 26.5291C34.2178 25.6882 32.1086 25.3496 29.9971 25.6329C24.223 26.4077 19.8382 31.7723 20.6587 37.6506C21.3979 42.947 26.3368 46.9653 31.7405 46.1758C36.5589 45.4718 40.2118 40.9579 39.4517 36.0284C38.7824 31.6883 34.692 28.4007 30.2362 29.1336C26.375 29.7688 23.4525 33.4375 24.1613 37.4202C24.7632 40.8018 28.0123 43.3602 31.5229 42.6705C34.424 42.1006 36.6208 39.2666 35.9419 36.2264C35.4016 33.8071 32.973 31.9685 30.4008 32.6526C28.4643 33.1676 26.9766 35.2112 27.7016 37.3187C27.9523 38.0475 28.4496 38.6372 29.1239 39.011C29.7983 39.3848 30.7481 39.4985 31.567 39.0621C31.6995 38.9916 31.8168 38.8956 31.9122 38.7797C32.0076 38.6639 32.0792 38.5303 32.123 38.3868C32.1668 38.2432 32.1819 38.0924 32.1674 37.9431C32.1529 37.7937 32.1091 37.6486 32.0386 37.5161C31.968 37.3836 31.872 37.2664 31.7561 37.171C31.6402 37.0757 31.5067 37.004 31.3631 36.9603C31.2195 36.9165 31.0687 36.9015 30.9193 36.916C30.77 36.9306 30.6249 36.9744 30.4924 37.045C30.4012 37.0936 30.3784 37.0932 30.2321 37.0121C30.0857 36.9309 29.9142 36.7247 29.8628 36.5752C29.6213 35.8731 30.2182 35.0666 30.9883 34.8618C32.1903 34.5421 33.435 35.487 33.7114 36.7243C34.0892 38.4161 32.7883 40.093 31.082 40.4282C28.9054 40.8558 26.7988 39.1962 26.4113 37.0193C25.9381 34.3606 27.9586 31.8247 30.6074 31.389C33.7465 30.8726 36.7115 33.255 37.1929 36.3766C37.7509 39.9951 35.0049 43.3894 31.41 43.9146C27.3128 44.5133 23.4902 41.4032 22.9223 37.3344C22.2838 32.759 25.7579 28.5076 30.301 27.898C33.6425 27.4497 37.0569 28.9987 39.0056 31.7571C39.1804 32.0046 39.4465 32.1725 39.7452 32.2239C40.0438 32.2752 40.3507 32.2059 40.5982 32.031C40.8457 31.8561 41.0135 31.5901 41.0649 31.2914C41.1163 30.9928 41.047 30.6859 40.8721 30.4384C39.6533 28.7131 37.9902 27.3701 36.104 26.5291Z" fill="url(#paint0_linear_1_35)"/>
<defs>
<linearGradient id="paint0_linear_1_35" x1="30.5546" y1="55.0977" x2="30.5045" y2="16.4374" gradientUnits="userSpaceOnUse">
<stop stop-color="#FFC753"/>
<stop offset="0.723837" stop-color="#FF755F"/>
<stop offset="1" stop-color="#FF3CAF"/>
</linearGradient>
</defs>
</svg>
