<svg width="64" height="64" viewBox="0 0 64 64" fill="none" xmlns="http://www.w3.org/2000/svg">
<path d="M28.9823 37.4693C22.5838 37.4693 17.3117 36.9511 13.1662 35.9147C9.02069 34.8333 5.95661 33.2336 3.97396 31.1158C1.99132 28.9529 1 26.2493 1 23.005C1 19.986 1.96879 17.3725 3.90637 15.1645C5.84396 12.9115 8.86298 11.1542 12.9634 9.89252C17.109 8.63084 22.4486 8 28.9823 8C30.289 8 31.6183 8 32.9701 8C34.3219 8 35.6512 8 36.9579 8H62.7773V16.5163C59.8484 16.6515 56.8745 16.5164 53.8554 16.1108C50.8815 15.6602 48.1328 15.0744 45.6095 14.3535L44.866 13.3396C46.8937 13.9705 48.8087 14.7815 50.6111 15.7729C52.4586 16.7642 53.9456 17.9583 55.0721 19.3551C56.1986 20.752 56.7618 22.4192 56.7618 24.3568C56.7618 27.1505 55.793 29.5387 53.8554 31.5214C51.9629 33.4589 48.9664 34.9459 44.866 35.9823C40.8106 36.9736 35.516 37.4693 28.9823 37.4693ZM43.379 56.6649V54.8399C43.379 53.4881 42.7707 52.677 41.5541 52.4067C40.3825 52.1814 38.5125 52.0687 35.9441 52.0687H17.0864C13.8872 52.0687 11.2962 51.8434 9.31358 51.3928C7.376 50.9422 5.88902 50.3339 4.85264 49.5679C3.86131 48.8019 3.18541 47.9457 2.82493 46.9995C2.50951 46.0983 2.3518 45.1971 2.3518 44.2959C2.3518 42.3583 3.07276 40.8488 4.51468 39.7673C5.95661 38.6408 8.16455 37.8523 11.1385 37.4017C14.1125 36.9511 17.8975 36.7258 22.4936 36.7258L28.9823 37.4693C25.1973 37.4693 22.5612 37.672 21.0743 38.0776C19.5873 38.4381 18.8438 39.1816 18.8438 40.3081C18.8438 40.9389 19.1367 41.412 19.7225 41.7275C20.3082 41.9978 21.0968 42.133 22.0881 42.133H42.0272C46.4881 42.133 50.0028 42.4484 52.5712 43.0793C55.1397 43.7552 56.9421 44.8591 57.9784 46.3912C59.0599 47.9683 59.6006 50.1086 59.6006 52.8122V56.6649H43.379ZM28.9823 28.615C31.9563 28.615 34.3444 28.3897 36.1468 27.9391C37.9943 27.4434 39.3236 26.79 40.1347 25.979C40.9457 25.1679 41.3513 24.2667 41.3513 23.2754C41.3513 22.1489 40.9457 21.1801 40.1347 20.369C39.3236 19.5579 38.0168 18.9271 36.2144 18.4765C34.412 18.0259 32.0013 17.8006 28.9823 17.8006C26.0083 17.8006 23.5976 18.0259 21.7502 18.4765C19.9027 18.9271 18.5509 19.5579 17.6948 20.369C16.8386 21.1801 16.4105 22.1489 16.4105 23.2754C16.4105 24.2667 16.8161 25.1679 17.6272 25.979C18.4833 26.79 19.8351 27.4434 21.6826 27.9391C23.53 28.3897 25.9633 28.615 28.9823 28.615Z" fill="black"/>
</svg>
