<svg width="64" height="64" viewBox="0 0 64 64" fill="none" xmlns="http://www.w3.org/2000/svg">
<path d="M45.7619 7.87587C60.1702 10.6391 63.4775 22.3307 63.4775 27.9181H36.1258C36.1258 27.5617 35.364 26.8039 32.9584 26.9237C29.966 27.0728 28.9088 29.7137 28.9088 32.4192C28.9088 35.1247 29.1685 37.4479 30.3502 38.2959C31.6616 39.237 32.8425 39.2668 34.2072 39.129C36.0651 38.9415 36.654 37.7064 36.7601 37.0344H30.7655V29.7137H63.4775V56.026H38.5107L37.6353 41.2621C37.6805 42.5161 36.6411 47.4777 35.5375 49.4641C33.5007 53.1304 31.2195 57.7008 18.1616 57.3492C2.86694 56.9373 0.522465 43.9029 0.522461 36.2991C0.522456 26.9237 1.96649 21.2534 7.07669 15.5318C14.7563 6.93337 30.7655 4.99983 45.7619 7.87587Z" fill="#00B5B5"/>
</svg>
