<svg width="64" height="64" viewBox="0 0 64 64" fill="none" xmlns="http://www.w3.org/2000/svg">
<path fill-rule="evenodd" clip-rule="evenodd" d="M6.55069 43.9803C4.40599 48.2312 2.799 50.9958 1.24638 54.9631C0.0342212 58.0604 1.49808 61.5798 4.51595 62.8238C7.53384 64.0679 10.963 62.5655 12.1751 59.4682C12.482 58.684 12.7778 57.9117 13.0635 57.1655L13.0661 57.1586C14.1541 54.3171 15.0925 51.8858 16.2276 49.696C17.5061 49.6248 18.9679 49.6138 20.6162 49.6044L20.8234 49.6032C23.8295 49.5862 27.4511 49.5658 30.5742 48.917C33.6991 48.2679 37.5663 46.7333 39.2758 42.623C39.7385 41.5105 40.2079 39.868 39.7969 38.1997C39.9202 38.1995 40.0466 38.1995 40.1762 38.1995C40.2456 38.1995 40.3164 38.1995 40.3884 38.1996C42.0376 38.2007 44.3583 38.2023 46.4328 37.6231C48.8535 36.9473 51.3989 35.3469 52.5156 31.9759C52.9191 30.7578 52.9939 29.4786 52.6455 28.2697C52.7523 28.2503 52.8617 28.2306 52.9741 28.2104C53.0281 28.2007 53.0829 28.1909 53.1384 28.1809C54.5559 27.9267 56.4532 27.5864 58.0742 26.964C59.6509 26.3586 62.2418 25.0061 63.0182 21.9064C63.4607 20.1397 63.4142 18.2693 62.4202 16.5802C62.0069 15.8778 61.481 15.3248 61.0145 14.917C61.449 14.3589 62.0016 13.5826 62.3822 12.7261C63.0425 11.24 63.383 9.05666 62.0323 6.9204C60.4993 4.49585 57.8707 4.0723 56.5704 3.96257C55.2183 3.84846 53.7647 3.97035 52.7202 4.06723C52.5784 3.71062 52.3831 3.33561 52.1131 2.9655C50.663 0.978048 48.4138 0.811008 47.1478 0.84595C44.59 0.916547 42.5894 2.08135 41.1433 3.28946C40.3844 3.9235 38.5783 6.51583 37.9874 7.1901C37.9874 4.77231 35.7179 3.54183 34.1223 3.28946C31.0243 2.79946 29.1055 4.84683 27.3216 7.1901C25.0979 10.1111 23.3765 13.8707 21.3424 16.6956C20.6414 16.2275 19.8115 15.1322 18.4842 15.1955C16.2973 15.2997 14.8446 16.8212 13.9045 17.8623C12.2687 19.674 11.2278 22.9654 10.5193 25.416C9.74905 28.9617 9.2237 30.4567 8.5996 34.3441C8.22845 36.6559 8.04028 38.4801 8.04028 41.0617C7.61448 41.918 7.12715 42.8377 6.55069 43.9803Z" fill="#639431"/>
<path fill-rule="evenodd" clip-rule="evenodd" d="M19.2006 18.3464C19.8407 18.9236 20.5909 19.6 22.2092 19.0221C23.2673 18.6443 24.6348 16.1828 26.1606 13.4363C28.3908 9.42172 30.9594 4.79819 33.3946 5.18336C36.3321 5.64797 36.1512 7.31693 36.0122 8.60059C35.9146 9.50098 35.8376 10.2118 36.8716 10.1845C37.9249 10.1567 38.9499 8.8863 40.1395 7.41202C41.7826 5.37558 43.7396 2.95016 46.5183 2.87347C48.4775 2.8194 48.4466 3.68586 48.4152 4.56456C48.3952 5.1262 48.375 5.69284 48.8741 6.02727C49.3659 6.35673 50.6025 6.24161 52.024 6.10926C54.303 5.89708 57.0574 5.64065 57.9807 7.10084C58.7923 8.38455 57.7583 9.66043 56.7671 10.8833C55.9276 11.9192 55.1189 12.917 55.4886 13.8494C55.7903 14.6101 56.4095 15.0387 57.0166 15.4588C58.0094 16.146 58.9695 16.8105 58.454 18.8686C57.909 21.0447 54.63 21.634 51.5565 22.1865C48.9817 22.6492 46.551 23.0861 45.9927 24.4083C45.6425 25.2375 46.2234 25.6237 46.8742 26.0563C47.6519 26.5733 48.5295 27.1568 48.0374 28.6421C46.8871 32.1146 43.0457 32.1146 39.4405 32.1147C36.346 32.1147 33.4254 32.1148 32.53 34.3107C32.013 35.5785 32.7955 35.8023 33.654 36.0479C34.7049 36.3485 35.8698 36.6817 34.9046 39.0025C33.0575 43.4436 26.1665 43.4833 19.8583 43.5196C17.5453 43.533 15.3107 43.5458 13.4317 43.7751C13.2173 43.8012 13.027 43.9276 12.9146 44.1168C11.1857 47.0285 9.95944 50.2309 8.65145 53.6468C8.36411 54.3973 8.07282 55.158 7.77139 55.9282C7.37291 56.9464 6.24563 57.4403 5.25353 57.0314C4.26144 56.6224 3.78022 55.4654 4.1787 54.4472C5.66286 50.6549 7.37505 47.1676 9.24726 43.9665C12.3027 38.1918 18.3257 31.1069 24.6949 25.7843C30.3621 20.9419 35.774 17.3174 42.0727 14.567C42.8611 14.2228 42.6271 13.2765 41.804 13.5206C36.2176 15.1775 31.2793 18.4639 26.1606 21.7758C20.5932 25.378 15.9277 30.2493 13.0567 33.791C12.5505 34.4155 11.4434 33.902 11.6028 33.1063C12.8497 26.8815 14.1366 21.169 16.0231 19.0797C17.8141 17.0961 18.4269 17.6487 19.2006 18.3464Z" fill="#D9EA72"/>
</svg>
