<svg width="64" height="64" viewBox="0 0 64 64" fill="none" xmlns="http://www.w3.org/2000/svg">
<path d="M15.3556 31.5106C15.7241 34.5814 17.0753 40.8461 20.1462 46.1283C20.5147 46.8653 21.4975 46.7424 21.743 46.1283L39.4316 13.6992C39.8002 13.085 39.6773 12.2252 39.0631 11.7338C36.4836 9.52275 33.1669 8.17154 29.2362 8.29436C15.1099 8.66289 14.9871 26.4743 15.3556 31.5106ZM34.7638 55.5868C48.5216 55.2181 49.013 37.5296 48.5216 32.6161C48.276 29.4223 46.9247 23.0348 43.7309 17.5072C43.4852 17.0158 42.6254 17.0158 42.3797 17.5072L24.5684 50.1819C24.3227 50.9188 24.4455 51.6559 24.9368 52.1473C27.5165 54.3583 30.8331 55.7095 34.7638 55.5868ZM49.7499 3.99506L49.013 5.34628C48.5216 6.20615 48.7673 7.18884 49.5042 7.55734C59.3314 13.822 62.525 24.6317 62.525 31.7563C62.525 40.6006 55.1548 61.2371 32.6757 61.2371C28.2534 61.2371 24.4455 60.623 21.0061 59.5175C20.3919 59.2718 19.532 59.5175 19.1635 60.1316L18.1808 62.0972C17.8123 62.834 16.9525 63.0797 16.2154 62.7113L14.8642 61.9742C14.1272 61.6058 13.8815 60.7459 14.25 60.0089L15.1099 58.4119C15.4784 57.6749 15.2327 56.815 14.6186 56.4466C4.79158 50.059 1.47498 39.1265 1.47498 32.2477C1.47498 23.4033 8.23102 2.7667 30.8331 2.7667C35.5009 2.7667 39.4316 3.38089 42.8711 4.48641C43.6082 4.73208 44.468 4.36358 44.8364 3.74939L45.942 1.784C46.3106 1.16981 47.1704 0.924138 47.7846 1.29265L49.2587 2.02967C49.8729 2.39819 50.1186 3.25804 49.7499 3.99506Z" fill="black"/>
</svg>
