<svg width="64" height="64" viewBox="0 0 64 64" fill="none" xmlns="http://www.w3.org/2000/svg">
<path d="M38.8392 1.51855C43.2582 1.51855 46.8405 5.18242 46.8405 9.70204C46.8405 11.5587 46.2345 13.2699 45.2157 14.6431L50.758 24.0001C51.3028 23.8802 51.8682 23.8165 52.4481 23.8165C56.8671 23.8165 60.4494 27.4804 60.4494 32C60.4494 36.5196 56.8671 40.1835 52.4481 40.1835C48.0291 40.1835 44.4468 36.5196 44.4468 32C44.4468 30.1472 45.0491 28.4385 46.064 27.0668L40.5174 17.7031C39.9761 17.8213 39.415 17.8855 38.8392 17.8855C38.2651 17.8855 37.7053 17.8228 37.1655 17.7053L31.5557 26.7987C32.5637 28.1677 33.1621 29.8706 33.1621 31.7164C33.162 33.6214 32.5231 35.3724 31.4557 36.763L37.11 46.3069C37.6669 46.1814 38.2454 46.1145 38.8392 46.1145C43.2582 46.1145 46.8405 49.7783 46.8405 54.298C46.8405 58.8176 43.2582 62.4814 38.8392 62.4814C34.4202 62.4814 30.8379 58.8176 30.8379 54.298C30.8379 52.4603 31.4302 50.7641 32.4301 49.3981L26.7106 39.7441C26.2091 39.8448 25.6911 39.8998 25.1608 39.8998C24.6178 39.8998 24.0877 39.8429 23.5751 39.7374L17.7696 49.1489C18.8844 50.5553 19.5532 52.3464 19.5532 54.298C19.5532 58.8176 15.9709 62.4814 11.552 62.4814C7.13296 62.4814 3.55066 58.8176 3.55066 54.298C3.55066 49.7783 7.13296 46.1145 11.552 46.1145C12.0383 46.1145 12.5142 46.1607 12.9767 46.2457L18.8442 36.7352C17.7897 35.3491 17.1596 33.6086 17.1595 31.7164C17.1595 27.1967 20.7418 23.5329 25.1608 23.5329C25.748 23.5329 26.3203 23.598 26.8715 23.7209L32.4671 14.6497C31.4455 13.2755 30.8379 11.5616 30.8379 9.70204C30.8379 5.18242 34.4202 1.51855 38.8392 1.51855Z" fill="#75C4E4"/>
</svg>
