<svg width="64" height="64" viewBox="0 0 64 64" fill="none" xmlns="http://www.w3.org/2000/svg">
<circle cx="32.1428" cy="32.1428" r="31.1428" fill="#D9E4FF"/>
<path d="M32.4944 4.94086C47.3571 5.12915 59.3479 17.2356 59.3479 32.143L59.3449 32.4946C59.1567 47.3573 47.0502 59.348 32.1428 59.3481L31.7912 59.3461C17.0455 59.1594 5.12647 47.2403 4.93968 32.4946L4.93772 32.143C4.93774 17.1182 17.118 4.93793 32.1428 4.93793L32.4944 4.94086ZM32.1428 6.10492C17.7622 6.10492 6.10474 17.7624 6.10472 32.143C6.10474 46.5236 17.7622 58.1811 32.1428 58.1811C46.5234 58.181 58.1809 46.5236 58.1809 32.143C58.1809 17.7624 46.5234 6.10498 32.1428 6.10492ZM32.3948 12.7143C43.0098 12.8489 51.5735 21.496 51.5735 32.143L51.5715 32.394C51.437 43.009 42.7907 51.5724 32.1438 51.5727L31.8918 51.5717C21.3603 51.4382 12.8485 42.9255 12.7151 32.394L12.7131 32.143C12.7131 21.412 21.4128 12.7123 32.1438 12.7123L32.3948 12.7143ZM32.1438 13.2963C21.7349 13.2963 13.2961 21.7341 13.2961 32.143C13.2962 42.5518 21.735 50.9897 32.1438 50.9897C42.5523 50.9894 50.9903 42.5516 50.9905 32.143C50.9905 21.7343 42.5524 13.2966 32.1438 13.2963ZM32.1428 20.5805C38.5284 20.5805 43.7053 25.7575 43.7053 32.143L43.7043 32.2924C43.6242 38.6091 38.4784 43.7045 32.1428 43.7045H31.9934C25.6769 43.6244 20.5814 38.4785 20.5813 32.143C20.5813 25.7576 25.7574 20.5807 32.1428 20.5805ZM32.1428 21.1635C26.0795 21.1637 21.1643 26.0797 21.1643 32.143C21.1644 38.2063 26.0796 43.1213 32.1428 43.1215C38.2062 43.1215 43.1222 38.2064 43.1223 32.143C43.1223 26.0796 38.2063 21.1635 32.1428 21.1635ZM32.1428 26.0864C35.4879 26.0864 38.1994 28.7979 38.1994 32.143C38.1993 35.488 35.4878 38.1996 32.1428 38.1996C28.7978 38.1996 26.0863 35.488 26.0862 32.143C26.0862 28.798 28.7978 26.0864 32.1428 26.0864Z" fill="#3B7EFF"/>
</svg>
