<svg width="64" height="64" viewBox="0 0 64 64" fill="none" xmlns="http://www.w3.org/2000/svg">
<path d="M32.0001 1.09973C45.9147 1.09978 57.2008 12.0113 57.2008 25.4784C57.2008 38.9454 45.9147 49.8567 32.0001 49.8568C29.4003 49.8568 27.047 49.5296 24.7268 48.8357C24.1191 48.6539 23.4581 48.819 23.0353 49.2846L11.8188 61.6346C11.3417 62.1589 10.8682 62.5566 10.3222 62.7565C9.77269 62.9578 9.16182 62.9547 8.41926 62.703C7.66113 62.4459 7.25363 61.9416 7.03822 61.4125C6.82456 60.8876 6.79974 60.3386 6.79915 59.9836V25.4784C6.79917 12.0113 18.0854 1.09973 32.0001 1.09973ZM32.7157 13.178C32.3467 12.3503 31.1719 12.3503 30.8029 13.178L27.6925 20.1556C27.5403 20.4969 27.2177 20.7313 26.8461 20.7706L19.249 21.5722C18.3478 21.6674 17.9848 22.7849 18.658 23.3916L24.3329 28.5057C24.6105 28.7559 24.7338 29.1352 24.6562 29.5008L23.0711 36.9738C22.883 37.8602 23.8336 38.5509 24.6186 38.0982L31.2361 34.2812C31.5598 34.0945 31.9586 34.0945 32.2823 34.2812L38.8998 38.0982C39.6848 38.5509 40.6353 37.8603 40.4473 36.9738L38.8624 29.5008C38.7848 29.1352 38.9079 28.7559 39.1855 28.5057L44.8604 23.3916C45.5336 22.7849 45.1706 21.6674 44.2694 21.5722L36.6723 20.7706C36.3006 20.7313 35.978 20.497 35.8258 20.1556L32.7157 13.178Z" fill="#533EE5"/>
</svg>
