<svg width="64" height="64" viewBox="0 0 64 64" fill="none" xmlns="http://www.w3.org/2000/svg">
<path d="M12.6923 8.56014C21.1606 3.48784 32.9802 2.65962 43.8724 3.10408C50.1339 3.35961 54.6592 5.81101 57.7679 9.53078C60.8691 13.242 62.5431 18.1945 63.1556 23.4351C63.7681 28.6777 63.3212 34.2299 62.1608 39.1634C61.0015 44.0926 59.1242 48.4301 56.8559 51.2292C47.8253 62.3724 35.953 61.5267 26.7211 60.517C22.0927 60.0106 16.4826 58.9573 11.7005 55.9161C6.90433 52.8662 2.96388 47.8317 1.65953 39.4193C0.388546 31.2219 1.01319 24.7813 3.02911 19.7473C5.04667 14.7092 8.44913 11.1017 12.6923 8.56014Z" fill="#250041"/>
<path d="M39.5823 13.9393C53.9896 14.4039 51.8655 45.1873 51.1184 56.5848C48.9087 58.0964 46.6136 59.1343 44.2922 59.827C44.6109 49.8605 46.726 21.6069 34.9084 19.077C9.06719 14.5786 19.335 44.1952 20.0686 59.3739C19.6026 59.2573 19.1356 59.1301 18.6682 58.993C17.8334 49.598 15.3232 38.6798 16.384 29.0701C17.7857 16.3759 30.7655 13.655 39.5823 13.9393ZM37.304 37.3592C39.3431 36.0439 41.8725 38.2807 40.9934 40.9891C39.7581 44.792 33.7607 39.645 37.304 37.3592Z" fill="#FCF4C3"/>
</svg>
