<svg width="64" height="64" viewBox="0 0 64 64" fill="none" xmlns="http://www.w3.org/2000/svg">
<path d="M32.4963 34.4842C46.491 34.4842 53.8619 40.7132 53.8619 48.3966C53.8617 56.0798 46.4908 62.3076 32.4963 62.3076C18.5018 62.3074 10.1381 54.5889 10.1381 46.9057C10.1381 39.2224 18.5018 34.4843 32.4963 34.4842ZM31.7859 19.5806C39.737 19.5808 46.4081 24.63 46.4087 29.0202C46.4087 33.4106 39.455 32.996 31.5037 32.996C23.5521 32.996 17.0943 32.9137 17.0943 28.5233C17.095 24.133 23.8348 19.5806 31.7859 19.5806ZM31.5037 9.64115C39.4553 9.64118 45.4161 12.7038 45.4161 17.0943C45.4159 21.4844 39.4551 18.5839 31.5037 18.5839C23.5523 18.5839 19.0823 20.9876 19.0822 16.5974C19.0822 12.2068 23.5522 9.64115 31.5037 9.64115ZM31.6056 1.69238C35.8061 1.69245 38.9552 3.55125 38.9555 6.7323C38.9555 9.91362 35.8063 7.65474 31.6056 7.65465C27.4049 7.65465 25.0431 9.91368 25.0431 6.7323C25.0433 3.55119 27.405 1.69238 31.6056 1.69238Z" fill="#FF6400"/>
</svg>
