<svg width="64" height="64" viewBox="0 0 64 64" fill="none" xmlns="http://www.w3.org/2000/svg">
<path d="M15.2088 1.84613C22.4429 1.84614 28.3956 7.79885 28.3956 15.0329C28.3956 18.8469 26.6327 21.6555 23.1796 21.6555C21.6008 21.6555 20.3755 21.0682 19.5103 20.0663C18.3527 21.0567 16.8502 21.6555 15.2088 21.6555C11.5537 21.6555 8.58621 18.6881 8.5862 15.0329C8.5862 11.3778 11.5536 8.41035 15.2088 8.41035C16.3413 8.41035 17.4076 8.69547 18.3403 9.19744C18.6926 8.72009 19.2591 8.41038 19.8973 8.41035C20.9648 8.41035 21.8314 9.27693 21.8314 10.3444V15.0329C21.8314 15.7841 21.9179 16.4822 22.1573 17.045C22.3416 17.4779 22.6564 17.7874 23.1796 17.7874C23.7027 17.7874 24.0173 17.4778 24.2016 17.045C24.4409 16.4822 24.5275 15.7841 24.5275 15.0329C24.5275 9.92092 20.3208 5.71427 15.2088 5.71426C10.0968 5.71426 5.89011 9.92092 5.89011 15.0329C5.89012 20.145 10.0968 24.3516 15.2088 24.3516C17.1329 24.3516 19.2115 23.7904 20.7023 22.7994C21.5912 22.2086 22.7927 22.4507 23.3836 23.3396C23.9744 24.2286 23.7324 25.4301 22.8434 26.0209C20.7685 27.4 17.8867 28.2198 15.2088 28.2198C7.97469 28.2198 2.02199 22.267 2.02198 15.0329C2.02198 7.79884 7.97469 1.84613 15.2088 1.84613ZM15.2088 12.2785C13.6885 12.2785 12.4543 13.5127 12.4543 15.0329C12.4543 16.5532 13.6885 17.7874 15.2088 17.7874C16.7291 17.7874 17.9632 16.5532 17.9633 15.0329C17.9633 13.5127 16.7291 12.2785 15.2088 12.2785Z" fill="#DA702C"/>
<path d="M21.4505 36.9231C24.5579 36.9231 27.0769 39.4421 27.0769 42.5494V55.2088C27.0769 58.3161 24.5579 60.8351 21.4505 60.8351H8.79121C5.68385 60.8351 3.16483 58.3161 3.16483 55.2088V42.5494C3.16483 39.4421 5.68385 36.9231 8.79121 36.9231H21.4505ZM8.79121 41.1428C8.01437 41.1428 7.38462 41.7726 7.38462 42.5494V55.2088C7.38462 55.9856 8.01437 56.6154 8.79121 56.6154H21.4505C22.2274 56.6154 22.8571 55.9856 22.8571 55.2088V42.5494C22.8571 41.7726 22.2274 41.1428 21.4505 41.1428H8.79121ZM55.2088 3.0769C58.3162 3.0769 60.8352 5.59592 60.8352 8.70328V21.3626C60.8352 24.47 58.3162 26.989 55.2088 26.989H42.5495C39.4421 26.989 36.9231 24.47 36.9231 21.3626V8.70328C36.9231 5.59592 39.4421 3.0769 42.5495 3.0769H55.2088ZM42.5495 7.29668C41.7726 7.29668 41.1429 7.92644 41.1429 8.70328V21.3626C41.1429 22.1395 41.7726 22.7692 42.5495 22.7692H55.2088C55.9856 22.7692 56.6154 22.1395 56.6154 21.3626V8.70328C56.6154 7.92644 55.9856 7.29668 55.2088 7.29668H42.5495Z" fill="#1C1B1A"/>
<path d="M42.5495 50.989C44.4916 50.989 46.0659 52.5634 46.0659 54.5055C46.0659 56.4476 44.4916 58.022 42.5495 58.022C40.6073 58.022 39.033 56.4476 39.033 54.5055C39.033 52.5634 40.6073 50.989 42.5495 50.989ZM55.2088 50.989C57.1509 50.989 58.7253 52.5634 58.7253 54.5055C58.7253 56.4476 57.1509 58.022 55.2088 58.022C53.2667 58.022 51.6923 56.4476 51.6923 54.5055C51.6923 52.5634 53.2667 50.989 55.2088 50.989ZM48.8791 38.3297C50.8212 38.3297 52.3956 39.904 52.3956 41.8461C52.3956 43.7882 50.8212 45.3626 48.8791 45.3626C46.937 45.3626 45.3626 43.7882 45.3626 41.8461C45.3626 39.904 46.937 38.3297 48.8791 38.3297Z" fill="#8B7EC8"/>
</svg>
