<svg width="64" height="64" viewBox="0 0 64 64" fill="none" xmlns="http://www.w3.org/2000/svg">
<path d="M38.1678 54.9961C39.0793 58.3988 37.0597 61.8959 33.6571 62.8076C33.1188 62.9518 32.564 63.0254 32.0067 63.0254C28.4839 63.0254 25.6278 60.1693 25.6278 56.6465C25.6278 56.0893 25.7004 55.5343 25.8446 54.9961L32.0067 32L38.1678 54.9961ZM15.1483 48.9316C12.6662 51.4245 8.63331 51.4332 6.14047 48.9512C5.74109 48.5535 5.39635 48.1046 5.11508 47.6162C3.34725 44.5464 4.40271 40.6253 7.47251 38.8574C7.95166 38.5815 8.46417 38.368 8.9979 38.2236L32.0067 32L15.1483 48.9316ZM55.0223 38.0879C58.3886 38.9782 60.3961 42.4286 59.5057 45.7949C59.3605 46.3439 59.1416 46.8709 58.8553 47.3613C57.0702 50.4192 53.1438 51.451 50.0858 49.666C49.6172 49.3925 49.1856 49.0601 48.8006 48.6777L32.0067 32L55.0223 38.0879ZM32.1141 0.974609C35.6045 0.974754 38.4343 3.80455 38.4344 7.29492C38.4344 7.84987 38.3609 8.40262 38.2166 8.93848L32.0067 32L25.9598 8.95215C25.0681 5.55339 27.1002 2.07551 30.4989 1.18359C31.026 1.0453 31.5692 0.974609 32.1141 0.974609ZM48.8817 15.1914C51.3736 12.7096 55.4055 12.7181 57.8875 15.21C58.2757 15.5996 58.612 16.0377 58.8875 16.5137C60.6426 19.5463 59.6067 23.4276 56.5741 25.1826C56.093 25.461 55.5776 25.6753 55.0409 25.8193L32.0067 32L48.8817 15.1914ZM5.15024 16.4248C6.91532 13.3754 10.8186 12.3337 13.868 14.0986C14.3521 14.3789 14.7975 14.7219 15.1922 15.1182L32.0067 32L9.01645 25.7949C5.60923 24.8754 3.59217 21.3682 4.51157 17.9609C4.65665 17.4234 4.87134 16.9067 5.15024 16.4248Z" fill="#FF0090"/>
</svg>
